Rokkitt-Light.ufo
<glyph name="dollar" format="1">
  <advance width="1121"/>
  <unicode hex="0024"/>
  <outline>
    <component base="S" xOffset="-12"/>
    <contour>
      <point x="558" y="-182" type="line"/>
      <point x="558" y="1333" type="line"/>
      <point x="604" y="1333" type="line"/>
      <point x="604" y="-182" type="line"/>
    </contour>
  </outline>
</glyph>
<glyph name="ampersand" format="1">
  <advance width="1143"/>
  <unicode hex="0026"/>
  <outline>
    <contour>
      <point x="485" y="-21" type="curve" smooth="yes"/>
      <point x="253" y="-21"/>
      <point x="115" y="102"/>
      <point x="115" y="313" type="curve" smooth="yes"/>
      <point x="115" y="479"/>
      <point x="204" y="596"/>
      <point x="384" y="655" type="curve"/>
      <point x="289" y="772"/>
      <point x="227" y="871"/>
      <point x="227" y="966" type="curve" smooth="yes"/>
      <point x="227" y="1103"/>
      <point x="329" y="1184"/>
      <point x="501" y="1184" type="curve" smooth="yes"/>
      <point x="667" y="1184"/>
      <point x="767" y="1103"/>
      <point x="767" y="968" type="curve" smooth="yes"/>
      <point x="767" y="829"/>
      <point x="659" y="708"/>
      <point x="478" y="635" type="curve"/>
      <point x="825" y="206" type="line"/>
      <point x="865" y="271"/>
      <point x="903" y="408"/>
      <point x="908" y="479" type="curve"/>
      <point x="1092" y="479" type="line"/>
      <point x="1092" y="423" type="line"/>
      <point x="959" y="423" type="line"/>
      <point x="952" y="361"/>
      <point x="906" y="224"/>
      <point x="861" y="157" type="curve"/>
      <point x="941" y="57" type="line"/>
      <point x="1092" y="57" type="line"/>
      <point x="1092" y="0" type="line"/>
      <point x="903" y="0" type="line"/>
      <point x="818" y="110" type="line"/>
      <point x="745" y="27"/>
      <point x="626" y="-21"/>
    </contour>
    <contour>
      <point x="492" y="40" type="curve" smooth="yes"/>
      <point x="610" y="40"/>
      <point x="714" y="80"/>
      <point x="780" y="157" type="curve"/>
      <point x="419" y="607" type="line"/>
      <point x="264" y="560"/>
      <point x="189" y="459"/>
      <point x="189" y="315" type="curve" smooth="yes"/>
      <point x="189" y="141"/>
      <point x="300" y="40"/>
    </contour>
    <contour>
      <point x="446" y="681" type="curve"/>
      <point x="603" y="741"/>
      <point x="700" y="844"/>
      <point x="700" y="966" type="curve" smooth="yes"/>
      <point x="700" y="1069"/>
      <point x="627" y="1128"/>
      <point x="500" y="1128" type="curve" smooth="yes"/>
      <point x="374" y="1128"/>
      <point x="292" y="1068"/>
      <point x="292" y="968" type="curve" smooth="yes"/>
      <point x="292" y="878"/>
      <point x="362" y="787"/>
    </contour>
  </outline>
</glyph>
<glyph name="parenleft" format="1">
  <advance width="519"/>
  <unicode hex="0028"/>
  <outline>
    <contour>
      <point x="482" y="-116" type="line"/>
      <point x="225" y="-24"/>
      <point x="96" y="251"/>
      <point x="96" y="528" type="curve" smooth="yes"/>
      <point x="96" y="804"/>
      <point x="225" y="1080"/>
      <point x="482" y="1174" type="curve"/>
      <point x="484" y="1128" type="line"/>
      <point x="281" y="1041"/>
      <point x="179" y="785"/>
      <point x="179" y="530" type="curve" smooth="yes"/>
      <point x="179" y="275"/>
      <point x="281" y="19"/>
      <point x="484" y="-69" type="curve"/>
    </contour>
  </outline>
</glyph>
<glyph name="parenright" format="1">
  <advance width="520"/>
  <unicode hex="0029"/>
  <outline>
    <contour>
      <point x="92" y="-116" type="curve"/>
      <point x="91" y="-69" type="line"/>
      <point x="294" y="19"/>
      <point x="396" y="275"/>
      <point x="396" y="530" type="curve" smooth="yes"/>
      <point x="396" y="785"/>
      <point x="294" y="1041"/>
      <point x="91" y="1128" type="curve"/>
      <point x="92" y="1174" type="line"/>
      <point x="350" y="1080"/>
      <point x="479" y="804"/>
      <point x="479" y="528" type="curve" smooth="yes"/>
      <point x="479" y="251"/>
      <point x="350" y="-24"/>
    </contour>
  </outline>
</glyph>
<glyph name="plus" format="1">
  <advance width="759"/>
  <unicode hex="002B"/>
  <outline>
    <contour>
      <point x="352" y="144" type="line"/>
      <point x="352" y="544" type="line"/>
      <point x="8" y="544" type="line"/>
      <point x="8" y="608" type="line"/>
      <point x="352" y="608" type="line"/>
      <point x="352" y="994" type="line"/>
      <point x="413" y="994" type="line"/>
      <point x="413" y="608" type="line"/>
      <point x="755" y="608" type="line"/>
      <point x="755" y="544" type="line"/>
      <point x="413" y="544" type="line"/>
      <point x="413" y="144" type="line"/>
    </contour>
  </outline>
</glyph>
<glyph name="comma" format="1">
  <advance width="404"/>
  <unicode hex="002C"/>
  <outline>
    <contour>
      <point x="167" y="-180" type="curve"/>
      <point x="167" y="-145" type="line"/>
      <point x="226" y="-137"/>
      <point x="241" y="-111"/>
      <point x="241" y="0" type="curve"/>
      <point x="176" y="0" type="line"/>
      <point x="176" y="125" type="line"/>
      <point x="207" y="125" type="line" smooth="yes"/>
      <point x="292" y="125" type="line"/>
      <point x="292" y="-1" type="line" smooth="yes"/>
      <point x="292" y="-102"/>
      <point x="272" y="-180"/>
    </contour>
  </outline>
</glyph>
<glyph name="hyphen" format="1">
  <advance width="857"/>
  <unicode hex="002D"/>
  <outline>
    <contour>
      <point x="171" y="421" type="line"/>
      <point x="171" y="478" type="line"/>
      <point x="684" y="478" type="line"/>
      <point x="684" y="421" type="line"/>
    </contour>
  </outline>
</glyph>
<glyph name="period" format="1">
  <advance width="472"/>
  <unicode hex="002E"/>
  <outline>
    <contour>
      <point x="188" y="0" type="line"/>
      <point x="188" y="115" type="line"/>
      <point x="295" y="115" type="line"/>
      <point x="295" y="0" type="line"/>
    </contour>
  </outline>
</glyph>
<glyph name="one" format="1">
  <advance width="592"/>
  <unicode hex="0031"/>
  <outline>
    <contour>
      <point x="125" y="0" type="line"/>
      <point x="125" y="55" type="line"/>
      <point x="291" y="55" type="line"/>
      <point x="291" y="1080" type="line"/>
      <point x="140" y="1039" type="line"/>
      <point x="128" y="1093" type="line"/>
      <point x="365" y="1154" type="line"/>
      <point x="365" y="55" type="line"/>
      <point x="526" y="55" type="line"/>
      <point x="526" y="0" type="line"/>
    </contour>
  </outline>
</glyph>
<glyph name="three" format="1">
  <advance width="985"/>
  <unicode hex="0033"/>
  <outline>
    <contour>
      <point x="479" y="-20" type="curve" smooth="yes"/>
      <point x="297" y="-20"/>
      <point x="158" y="62"/>
      <point x="98" y="205" type="curve"/>
      <point x="155" y="242" type="line"/>
      <point x="217" y="111"/>
      <point x="332" y="39"/>
      <point x="480" y="39" type="curve" smooth="yes"/>
      <point x="683" y="39"/>
      <point x="800" y="144"/>
      <point x="800" y="329" type="curve" smooth="yes"/>
      <point x="800" y="492"/>
      <point x="667" y="577"/>
      <point x="417" y="577" type="curve"/>
      <point x="417" y="635" type="line"/>
      <point x="662" y="635"/>
      <point x="784" y="720"/>
      <point x="784" y="873" type="curve" smooth="yes"/>
      <point x="784" y="1026"/>
      <point x="668" y="1114"/>
      <point x="466" y="1114" type="curve" smooth="yes"/>
      <point x="314" y="1114"/>
      <point x="201" y="1042"/>
      <point x="150" y="916" type="curve"/>
      <point x="93" y="942" type="line"/>
      <point x="150" y="1089"/>
      <point x="284" y="1174"/>
      <point x="466" y="1174" type="curve" smooth="yes"/>
      <point x="714" y="1174"/>
      <point x="857" y="1063"/>
      <point x="857" y="874" type="curve" smooth="yes"/>
      <point x="857" y="724"/>
      <point x="760" y="629"/>
      <point x="589" y="607" type="curve"/>
      <point x="771" y="583"/>
      <point x="874" y="487"/>
      <point x="874" y="332" type="curve" smooth="yes"/>
      <point x="874" y="108"/>
      <point x="731" y="-20"/>
    </contour>
  </outline>
</glyph>
<glyph name="four" format="1">
  <advance width="966"/>
  <unicode hex="0034"/>
  <outline>
    <contour>
      <point x="434" y="0" type="line"/>
      <point x="434" y="55" type="line"/>
      <point x="580" y="55" type="line"/>
      <point x="580" y="363" type="line"/>
      <point x="109" y="363" type="line"/>
      <point x="97" y="426" type="line"/>
      <point x="571" y="1152" type="line"/>
      <point x="651" y="1152" type="line"/>
      <point x="651" y="418" type="line"/>
      <point x="862" y="418" type="line"/>
      <point x="862" y="363" type="line"/>
      <point x="651" y="363" type="line"/>
      <point x="651" y="55" type="line"/>
      <point x="794" y="55" type="line"/>
      <point x="794" y="0" type="line"/>
    </contour>
    <contour>
      <point x="170" y="418" type="line"/>
      <point x="580" y="418" type="line"/>
      <point x="580" y="1064" type="line"/>
    </contour>
  </outline>
</glyph>
<glyph name="seven" format="1">
  <advance width="971"/>
  <unicode hex="0037"/>
  <outline>
    <contour>
      <point x="403" y="0" type="line"/>
      <point x="403" y="0"/>
      <point x="551" y="510"/>
      <point x="782" y="1095" type="curve"/>
      <point x="196" y="1095" type="line"/>
      <point x="196" y="846" type="line"/>
      <point x="124" y="846" type="line"/>
      <point x="124" y="1152" type="line"/>
      <point x="865" y="1152" type="line"/>
      <point x="865" y="1099" type="line"/>
      <point x="679" y="655"/>
      <point x="481" y="0"/>
      <point x="481" y="0" type="curve"/>
    </contour>
  </outline>
</glyph>
<glyph name="colon" format="1">
  <advance width="474"/>
  <unicode hex="003A"/>
  <outline>
    <contour>
      <point x="186" y="234" type="line"/>
      <point x="186" y="349" type="line"/>
      <point x="295" y="349" type="line"/>
      <point x="295" y="234" type="line"/>
    </contour>
    <contour>
      <point x="186" y="707" type="line"/>
      <point x="186" y="824" type="line"/>
      <point x="295" y="824" type="line"/>
      <point x="295" y="707" type="line"/>
    </contour>
  </outline>
</glyph>
<glyph name="semicolon" format="1">
  <advance width="339"/>
  <unicode hex="003B"/>
  <outline>
    <contour>
      <point x="90" y="58" type="curve"/>
      <point x="90" y="102" type="line"/>
      <point x="157" y="121"/>
      <point x="157" y="152"/>
      <point x="157" y="235" type="curve"/>
      <point x="101" y="235" type="line"/>
      <point x="101" y="351" type="line"/>
      <point x="220" y="351" type="line"/>
      <point x="220" y="232" type="line" smooth="yes"/>
      <point x="220" y="140"/>
      <point x="193" y="59"/>
    </contour>
    <contour>
      <point x="107" y="707" type="line"/>
      <point x="107" y="824" type="line"/>
      <point x="216" y="824" type="line"/>
      <point x="216" y="707" type="line"/>
    </contour>
  </outline>
</glyph>
<glyph name="less" format="1">
  <advance width="932"/>
  <unicode hex="003C"/>
  <outline>
    <contour>
      <point x="791" y="-77" type="line"/>
      <point x="-37" y="553" type="line"/>
      <point x="-37" y="591" type="line"/>
      <point x="791" y="1227" type="line"/>
      <point x="791" y="1134" type="line"/>
      <point x="45" y="573" type="line"/>
      <point x="791" y="14" type="line"/>
    </contour>
  </outline>
</glyph>
<glyph name="greater" format="1">
  <advance width="933"/>
  <unicode hex="003E"/>
  <outline>
    <contour>
      <point x="144" y="-77" type="line"/>
      <point x="144" y="14" type="line"/>
      <point x="889" y="573" type="line"/>
      <point x="144" y="1134" type="line"/>
      <point x="144" y="1227" type="line"/>
      <point x="970" y="593" type="line"/>
      <point x="970" y="551" type="line"/>
    </contour>
  </outline>
</glyph>
<glyph name="question" format="1">
  <advance width="673"/>
  <unicode hex="003F"/>
  <outline>
    <contour>
      <point x="278" y="291" type="line"/>
      <point x="310" y="725"/>
      <point x="580" y="651"/>
      <point x="580" y="908" type="curve" smooth="yes"/>
      <point x="580" y="1044"/>
      <point x="489" y="1130"/>
      <point x="333" y="1130" type="curve" smooth="yes"/>
      <point x="183" y="1130"/>
      <point x="101" y="1080"/>
      <point x="76" y="937" type="curve"/>
      <point x="18" y="937" type="line"/>
      <point x="31" y="1121"/>
      <point x="158" y="1186"/>
      <point x="332" y="1186" type="curve" smooth="yes"/>
      <point x="526" y="1186"/>
      <point x="644" y="1078"/>
      <point x="644" y="908" type="curve" smooth="yes"/>
      <point x="644" y="615"/>
      <point x="377" y="696"/>
      <point x="322" y="291" type="curve"/>
    </contour>
    <contour>
      <point x="298" y="-20" type="curve" smooth="yes"/>
      <point x="260" y="-20"/>
      <point x="232" y="7"/>
      <point x="232" y="43" type="curve" smooth="yes"/>
      <point x="232" y="78"/>
      <point x="260" y="105"/>
      <point x="298" y="105" type="curve" smooth="yes"/>
      <point x="338" y="105"/>
      <point x="367" y="78"/>
      <point x="367" y="43" type="curve" smooth="yes"/>
      <point x="367" y="7"/>
      <point x="338" y="-20"/>
    </contour>
  </outline>
</glyph>
<glyph name="A" format="1">
  <advance width="1383"/>
  <unicode hex="0041"/>
  <outline>
    <contour>
      <point x="482" y="529" type="line"/>
      <point x="897" y="529" type="line"/>
      <point x="692" y="1091" type="line"/>
      <point x="686" y="1091" type="line"/>
    </contour>
    <contour>
      <point x="82" y="0" type="line"/>
      <point x="82" y="55" type="line"/>
      <point x="235" y="55" type="line"/>
      <point x="620" y="1097" type="line"/>
      <point x="478" y="1097" type="line"/>
      <point x="478" y="1152" type="line"/>
      <point x="908" y="1152" type="line"/>
      <point x="908" y="1097" type="line"/>
      <point x="763" y="1097" type="line"/>
      <point x="1150" y="55" type="line"/>
      <point x="1300" y="55" type="line"/>
      <point x="1300" y="0" type="line"/>
      <point x="916" y="0" type="line"/>
      <point x="916" y="55" type="line"/>
      <point x="1067" y="55" type="line"/>
      <point x="913" y="476" type="line"/>
      <point x="465" y="476" type="line"/>
      <point x="312" y="55" type="line"/>
      <point x="462" y="55" type="line"/>
      <point x="462" y="0" type="line"/>
    </contour>
  </outline>
</glyph>
<glyph name="B" format="1">
  <advance width="1279"/>
  <unicode hex="0042"/>
  <outline>
    <contour>
      <point x="754" y="1152" type="line" smooth="yes"/>
      <point x="979" y="1152"/>
      <point x="1101" y="1058"/>
      <point x="1101" y="871" type="curve" smooth="yes"/>
      <point x="1101" y="734"/>
      <point x="1035" y="634"/>
      <point x="927" y="610" type="curve"/>
      <point x="1110" y="577"/>
      <point x="1170" y="448"/>
      <point x="1170" y="317" type="curve" smooth="yes"/>
      <point x="1170" y="137"/>
      <point x="1053" y="0"/>
      <point x="839" y="0" type="curve" smooth="yes"/>
      <point x="116" y="0" type="line"/>
      <point x="116" y="55" type="line"/>
      <point x="287" y="55" type="line"/>
      <point x="287" y="1097" type="line"/>
      <point x="116" y="1097" type="line"/>
      <point x="116" y="1152" type="line"/>
    </contour>
    <contour>
      <point x="366" y="1097" type="line"/>
      <point x="366" y="634" type="line"/>
      <point x="800" y="634" type="line" smooth="yes"/>
      <point x="962" y="634"/>
      <point x="1026" y="733"/>
      <point x="1026" y="869" type="curve" smooth="yes"/>
      <point x="1026" y="1029"/>
      <point x="929" y="1097"/>
      <point x="741" y="1097" type="curve" smooth="yes"/>
    </contour>
    <contour>
      <point x="366" y="578" type="line"/>
      <point x="366" y="55" type="line"/>
      <point x="831" y="55" type="line" smooth="yes"/>
      <point x="995" y="55"/>
      <point x="1091" y="159"/>
      <point x="1091" y="319" type="curve" smooth="yes"/>
      <point x="1091" y="465"/>
      <point x="1004" y="578"/>
      <point x="806" y="578" type="curve" smooth="yes"/>
    </contour>
  </outline>
</glyph>
<glyph name="C" format="1">
  <advance width="1397"/>
  <unicode hex="0043"/>
  <outline>
    <contour>
      <point x="712" y="-22" type="curve" smooth="yes"/>
      <point x="419" y="-22"/>
      <point x="116" y="174"/>
      <point x="116" y="581" type="curve" smooth="yes"/>
      <point x="116" y="912"/>
      <point x="354" y="1172"/>
      <point x="712" y="1172" type="curve" smooth="yes"/>
      <point x="954" y="1172"/>
      <point x="1080" y="1080"/>
      <point x="1169" y="930" type="curve"/>
      <point x="1169" y="1153" type="line"/>
      <point x="1237" y="1153" type="line"/>
      <point x="1237" y="827" type="line"/>
      <point x="1182" y="814" type="line"/>
      <point x="1081" y="1016"/>
      <point x="955" y="1112"/>
      <point x="715" y="1112" type="curve" smooth="yes"/>
      <point x="385" y="1112"/>
      <point x="195" y="860"/>
      <point x="195" y="580" type="curve" smooth="yes"/>
      <point x="195" y="220"/>
      <point x="455" y="39"/>
      <point x="715" y="39" type="curve" smooth="yes"/>
      <point x="894" y="39"/>
      <point x="1084" y="101"/>
      <point x="1189" y="298" type="curve"/>
      <point x="1242" y="264" type="line"/>
      <point x="1126" y="55"/>
      <point x="938" y="-22"/>
    </contour>
  </outline>
</glyph>
<glyph name="D" format="1">
  <advance width="1425"/>
  <unicode hex="0044"/>
  <outline>
    <contour>
      <point x="287" y="55" type="line"/>
      <point x="287" y="1097" type="line"/>
      <point x="116" y="1097" type="line"/>
      <point x="116" y="1152" type="line"/>
      <point x="793" y="1152" type="line" smooth="yes"/>
      <point x="1143" y="1152"/>
      <point x="1304" y="836"/>
      <point x="1304" y="575" type="curve" smooth="yes"/>
      <point x="1304" y="300"/>
      <point x="1135" y="0"/>
      <point x="797" y="0" type="curve" smooth="yes"/>
      <point x="116" y="0" type="line"/>
      <point x="116" y="55" type="line"/>
    </contour>
    <contour>
      <point x="366" y="1097" type="line"/>
      <point x="366" y="55" type="line"/>
      <point x="785" y="55" type="line" smooth="yes"/>
      <point x="1083" y="55"/>
      <point x="1225" y="319"/>
      <point x="1225" y="574" type="curve" smooth="yes"/>
      <point x="1225" y="821"/>
      <point x="1082" y="1097"/>
      <point x="792" y="1097" type="curve" smooth="yes"/>
    </contour>
  </outline>
</glyph>
<glyph name="E" format="1">
  <advance width="1217"/>
  <unicode hex="0045"/>
  <outline>
    <contour>
      <point x="1001" y="822" type="line"/>
      <point x="1001" y="1097" type="line"/>
      <point x="366" y="1097" type="line"/>
      <point x="366" y="618" type="line"/>
      <point x="777" y="618" type="line"/>
      <point x="777" y="782" type="line"/>
      <point x="829" y="782" type="line"/>
      <point x="829" y="387" type="line"/>
      <point x="777" y="387" type="line"/>
      <point x="777" y="561" type="line"/>
      <point x="366" y="561" type="line"/>
      <point x="366" y="55" type="line"/>
      <point x="1024" y="55" type="line"/>
      <point x="1024" y="337" type="line"/>
      <point x="1089" y="337" type="line"/>
      <point x="1089" y="0" type="line"/>
      <point x="116" y="0" type="line"/>
      <point x="116" y="55" type="line"/>
      <point x="287" y="55" type="line"/>
      <point x="287" y="1097" type="line"/>
      <point x="116" y="1097" type="line"/>
      <point x="116" y="1152" type="line"/>
      <point x="1066" y="1152" type="line"/>
      <point x="1066" y="822" type="line"/>
    </contour>
  </outline>
</glyph>
<glyph name="H" format="1">
  <advance width="1484"/>
  <unicode hex="0048"/>
  <outline>
    <contour>
      <point x="116" y="0" type="line"/>
      <point x="116" y="55" type="line"/>
      <point x="287" y="55" type="line"/>
      <point x="287" y="1097" type="line"/>
      <point x="116" y="1097" type="line"/>
      <point x="116" y="1152" type="line"/>
      <point x="538" y="1152" type="line"/>
      <point x="538" y="1097" type="line"/>
      <point x="366" y="1097" type="line"/>
      <point x="366" y="613" type="line"/>
      <point x="1116" y="613" type="line"/>
      <point x="1116" y="1097" type="line"/>
      <point x="945" y="1097" type="line"/>
      <point x="945" y="1152" type="line"/>
      <point x="1367" y="1152" type="line"/>
      <point x="1367" y="1097" type="line"/>
      <point x="1195" y="1097" type="line"/>
      <point x="1195" y="55" type="line"/>
      <point x="1367" y="55" type="line"/>
      <point x="1367" y="0" type="line"/>
      <point x="945" y="0" type="line"/>
      <point x="945" y="55" type="line"/>
      <point x="1116" y="55" type="line"/>
      <point x="1116" y="555" type="line"/>
      <point x="366" y="555" type="line"/>
      <point x="366" y="55" type="line"/>
      <point x="538" y="55" type="line"/>
      <point x="538" y="0" type="line"/>
    </contour>
    <contour>
      <point x="741" y="1152" type="move" name="top"/>
    </contour>
  </outline>
</glyph>
<glyph name="I" format="1">
  <advance width="645"/>
  <unicode hex="0049"/>
  <outline>
    <contour>
      <point x="111" y="0" type="line"/>
      <point x="111" y="55" type="line"/>
      <point x="282" y="55" type="line"/>
      <point x="282" y="1097" type="line"/>
      <point x="111" y="1097" type="line"/>
      <point x="111" y="1152" type="line"/>
      <point x="533" y="1152" type="line"/>
      <point x="533" y="1097" type="line"/>
      <point x="361" y="1097" type="line"/>
      <point x="361" y="55" type="line"/>
      <point x="533" y="55" type="line"/>
      <point x="533" y="0" type="line"/>
    </contour>
    <contour>
      <point x="325" y="1152" type="move" name="top"/>
    </contour>
  </outline>
</glyph>
<glyph name="J" format="1">
  <advance width="584"/>
  <unicode hex="004A"/>
  <outline>
    <contour>
      <point x="96" y="-91" type="line"/>
      <point x="96" y="-29" type="line"/>
      <point x="218" y="-29" type="line" smooth="yes"/>
      <point x="302" y="-29"/>
      <point x="315" y="24"/>
      <point x="315" y="147" type="curve" smooth="yes"/>
      <point x="315" y="1097" type="line"/>
      <point x="178" y="1097" type="line"/>
      <point x="178" y="1152" type="line"/>
      <point x="523" y="1152" type="line"/>
      <point x="523" y="1097" type="line"/>
      <point x="394" y="1097" type="line"/>
      <point x="394" y="139" type="line" smooth="yes"/>
      <point x="394" y="-48"/>
      <point x="339" y="-90"/>
      <point x="214" y="-91" type="curve"/>
    </contour>
    <contour>
      <point x="359" y="1152" type="move" name="top"/>
    </contour>
  </outline>
</glyph>
<glyph name="K" format="1">
  <advance width="1302"/>
  <unicode hex="004B"/>
  <outline>
    <contour>
      <point x="813" y="0" type="line"/>
      <point x="813" y="55" type="line"/>
      <point x="964" y="55" type="line"/>
      <point x="366" y="576" type="line"/>
      <point x="366" y="55" type="line"/>
      <point x="538" y="55" type="line"/>
      <point x="538" y="0" type="line"/>
      <point x="116" y="0" type="line"/>
      <point x="116" y="55" type="line"/>
      <point x="287" y="55" type="line"/>
      <point x="287" y="1097" type="line"/>
      <point x="116" y="1097" type="line"/>
      <point x="116" y="1152" type="line"/>
      <point x="538" y="1152" type="line"/>
      <point x="538" y="1097" type="line"/>
      <point x="366" y="1097" type="line"/>
      <point x="366" y="594" type="line"/>
      <point x="934" y="1097" type="line"/>
      <point x="782" y="1097" type="line"/>
      <point x="782" y="1152" type="line"/>
      <point x="1193" y="1152" type="line"/>
      <point x="1193" y="1097" type="line"/>
      <point x="1025" y="1097" type="line"/>
      <point x="456" y="586" type="line"/>
      <point x="1061" y="55" type="line"/>
      <point x="1222" y="55" type="line"/>
      <point x="1222" y="0" type="line"/>
    </contour>
    <contour>
      <point x="659" y="1152" type="move" name="top"/>
    </contour>
  </outline>
</glyph>
<glyph name="L" format="1">
  <advance width="1061"/>
  <unicode hex="004C"/>
  <outline>
    <contour>
      <point x="366" y="55" type="line"/>
      <point x="943" y="55" type="line"/>
      <point x="943" y="388" type="line"/>
      <point x="1008" y="388" type="line"/>
      <point x="1008" y="0" type="line"/>
      <point x="116" y="0" type="line"/>
      <point x="116" y="55" type="line"/>
      <point x="287" y="55" type="line"/>
      <point x="287" y="1097" type="line"/>
      <point x="116" y="1097" type="line"/>
      <point x="116" y="1152" type="line"/>
      <point x="538" y="1152" type="line"/>
      <point x="538" y="1097" type="line"/>
      <point x="366" y="1097" type="line"/>
    </contour>
    <contour>
      <point x="721" y="1152" type="move" name="top"/>
    </contour>
    <contour>
      <point x="555" y="804" type="move" name="caron.alt"/>
    </contour>
  </outline>
</glyph>
<glyph name="N" format="1">
  <advance width="1443"/>
  <unicode hex="004E"/>
  <outline>
    <contour>
      <point x="124" y="0" type="line"/>
      <point x="124" y="55" type="line"/>
      <point x="273" y="55" type="line"/>
      <point x="273" y="1097" type="line"/>
      <point x="124" y="1097" type="line"/>
      <point x="124" y="1152" type="line"/>
      <point x="353" y="1152" type="line"/>
      <point x="1167" y="108" type="line"/>
      <point x="1167" y="1097" type="line"/>
      <point x="1012" y="1097" type="line"/>
      <point x="1012" y="1152" type="line"/>
      <point x="1369" y="1152" type="line"/>
      <point x="1369" y="1097" type="line"/>
      <point x="1235" y="1097" type="line"/>
      <point x="1235" y="0" type="line"/>
      <point x="1157" y="0" type="line"/>
      <point x="341" y="1047" type="line"/>
      <point x="341" y="55" type="line"/>
      <point x="494" y="55" type="line"/>
      <point x="494" y="0" type="line"/>
    </contour>
  </outline>
</glyph>
<glyph name="P" format="1">
  <advance width="1205"/>
  <unicode hex="0050"/>
  <outline>
    <contour>
      <point x="459" y="493" type="line"/>
      <point x="459" y="549" type="line"/>
      <point x="729" y="549" type="line" smooth="yes"/>
      <point x="898" y="549"/>
      <point x="996" y="656"/>
      <point x="996" y="841" type="curve" smooth="yes"/>
      <point x="996" y="1003"/>
      <point x="898" y="1097"/>
      <point x="729" y="1097" type="curve" smooth="yes"/>
      <point x="366" y="1097" type="line"/>
      <point x="366" y="55" type="line"/>
      <point x="538" y="55" type="line"/>
      <point x="538" y="0" type="line"/>
      <point x="116" y="0" type="line"/>
      <point x="116" y="55" type="line"/>
      <point x="287" y="55" type="line"/>
      <point x="287" y="1097" type="line"/>
      <point x="116" y="1097" type="line"/>
      <point x="116" y="1152" type="line"/>
      <point x="724" y="1152" type="line" smooth="yes"/>
      <point x="949" y="1152"/>
      <point x="1077" y="1040"/>
      <point x="1077" y="844" type="curve" smooth="yes"/>
      <point x="1077" y="622"/>
      <point x="950" y="493"/>
      <point x="730" y="493" type="curve" smooth="yes"/>
    </contour>
    <contour>
      <point x="656" y="1152" type="move" name="top"/>
    </contour>
  </outline>
</glyph>
<glyph name="Q" format="1">
  <advance width="1440"/>
  <unicode hex="0051"/>
  <outline>
    <contour>
      <point x="1166" y="-198" type="line"/>
      <point x="1119" y="-213"/>
      <point x="1077" y="-220"/>
      <point x="1040" y="-220" type="curve" smooth="yes"/>
      <point x="904" y="-220"/>
      <point x="819" y="-129"/>
      <point x="680" y="7" type="curve"/>
      <point x="756" y="7" type="line"/>
      <point x="866" y="-92"/>
      <point x="929" y="-166"/>
      <point x="1043" y="-166" type="curve" smooth="yes"/>
      <point x="1076" y="-166"/>
      <point x="1113" y="-159"/>
      <point x="1157" y="-146" type="curve"/>
    </contour>
    <component base="O"/>
  </outline>
</glyph>
<glyph name="R" format="1">
  <advance width="1288"/>
  <unicode hex="0052"/>
  <outline>
    <contour>
      <point x="980" y="0" type="line"/>
      <point x="649" y="536" type="line"/>
      <point x="433" y="536" type="line"/>
      <point x="433" y="592" type="line"/>
      <point x="690" y="592" type="line" smooth="yes"/>
      <point x="944" y="592"/>
      <point x="1000" y="733"/>
      <point x="1000" y="846" type="curve" smooth="yes"/>
      <point x="1000" y="968"/>
      <point x="935" y="1097"/>
      <point x="742" y="1097" type="curve" smooth="yes"/>
      <point x="366" y="1097" type="line"/>
      <point x="366" y="55" type="line"/>
      <point x="538" y="55" type="line"/>
      <point x="538" y="0" type="line"/>
      <point x="116" y="0" type="line"/>
      <point x="116" y="55" type="line"/>
      <point x="287" y="55" type="line"/>
      <point x="287" y="1097" type="line"/>
      <point x="116" y="1097" type="line"/>
      <point x="116" y="1152" type="line"/>
      <point x="738" y="1152" type="line" smooth="yes"/>
      <point x="976" y="1152"/>
      <point x="1078" y="1006"/>
      <point x="1078" y="847" type="curve" smooth="yes"/>
      <point x="1078" y="697"/>
      <point x="995" y="550"/>
      <point x="731" y="541" type="curve"/>
      <point x="1033" y="55" type="line"/>
      <point x="1203" y="55" type="line"/>
      <point x="1203" y="0" type="line"/>
    </contour>
  </outline>
</glyph>
<glyph name="T" format="1">
  <advance width="1146"/>
  <unicode hex="0054"/>
  <outline>
    <contour>
      <point x="52" y="770" type="line"/>
      <point x="52" y="1152" type="line"/>
      <point x="1096" y="1152" type="line"/>
      <point x="1096" y="770" type="line"/>
      <point x="1028" y="770" type="line"/>
      <point x="1028" y="1097" type="line"/>
      <point x="607" y="1097" type="line"/>
      <point x="607" y="55" type="line"/>
      <point x="779" y="55" type="line"/>
      <point x="779" y="0" type="line"/>
      <point x="357" y="0" type="line"/>
      <point x="357" y="55" type="line"/>
      <point x="528" y="55" type="line"/>
      <point x="528" y="1097" type="line"/>
      <point x="116" y="1097" type="line"/>
      <point x="116" y="770" type="line"/>
    </contour>
  </outline>
</glyph>
<glyph name="U" format="1">
  <advance width="1473"/>
  <unicode hex="0055"/>
  <outline>
    <contour>
      <point x="730" y="-21" type="curve" smooth="yes"/>
      <point x="422" y="-21"/>
      <point x="233" y="145"/>
      <point x="233" y="382" type="curve" smooth="yes"/>
      <point x="233" y="1097" type="line"/>
      <point x="80" y="1097" type="line"/>
      <point x="80" y="1152" type="line"/>
      <point x="465" y="1152" type="line"/>
      <point x="465" y="1097" type="line"/>
      <point x="313" y="1097" type="line"/>
      <point x="313" y="379" type="line" smooth="yes"/>
      <point x="313" y="175"/>
      <point x="479" y="39"/>
      <point x="731" y="39" type="curve" smooth="yes"/>
      <point x="999" y="39"/>
      <point x="1180" y="173"/>
      <point x="1180" y="377" type="curve" smooth="yes"/>
      <point x="1180" y="1097" type="line"/>
      <point x="1029" y="1097" type="line"/>
      <point x="1029" y="1152" type="line"/>
      <point x="1410" y="1152" type="line"/>
      <point x="1410" y="1097" type="line"/>
      <point x="1252" y="1097" type="line"/>
      <point x="1252" y="378" type="line" smooth="yes"/>
      <point x="1252" y="131"/>
      <point x="1036" y="-21"/>
    </contour>
  </outline>
</glyph>
<glyph name="Y" format="1">
  <advance width="1266"/>
  <unicode hex="0059"/>
  <outline>
    <contour>
      <point x="426" y="0" type="line"/>
      <point x="426" y="55" type="line"/>
      <point x="594" y="55" type="line"/>
      <point x="594" y="469" type="line"/>
      <point x="173" y="1097" type="line"/>
      <point x="17" y="1097" type="line"/>
      <point x="17" y="1152" type="line"/>
      <point x="409" y="1152" type="line"/>
      <point x="409" y="1097" type="line"/>
      <point x="258" y="1097" type="line"/>
      <point x="637" y="530" type="line"/>
      <point x="1013" y="1097" type="line"/>
      <point x="855" y="1097" type="line"/>
      <point x="855" y="1152" type="line"/>
      <point x="1245" y="1152" type="line"/>
      <point x="1245" y="1097" type="line"/>
      <point x="1092" y="1097" type="line"/>
      <point x="672" y="469" type="line"/>
      <point x="672" y="55" type="line"/>
      <point x="841" y="55" type="line"/>
      <point x="841" y="0" type="line"/>
    </contour>
  </outline>
</glyph>
<glyph name="bracketleft" format="1">
  <advance width="392"/>
  <unicode hex="005B"/>
  <outline>
    <contour>
      <point x="161" y="-141" type="line"/>
      <point x="161" y="1205" type="line"/>
      <point x="370" y="1205" type="line"/>
      <point x="370" y="1145" type="line"/>
      <point x="243" y="1145" type="line"/>
      <point x="243" y="-80" type="line"/>
      <point x="370" y="-80" type="line"/>
      <point x="370" y="-141" type="line"/>
    </contour>
  </outline>
</glyph>
<glyph name="backslash" format="1">
  <advance width="391"/>
  <unicode hex="005C"/>
  <outline>
    <contour>
      <point x="334" y="-24" type="line"/>
      <point x="-24" y="1182" type="line"/>
      <point x="44" y="1182" type="line"/>
      <point x="407" y="-24" type="line"/>
    </contour>
  </outline>
</glyph>
<glyph name="asciicircum" format="1">
  <advance width="915"/>
  <unicode hex="005E"/>
  <outline>
    <contour>
      <point x="71" y="776" type="line"/>
      <point x="423" y="1278" type="line"/>
      <point x="504" y="1278" type="line"/>
      <point x="840" y="776" type="line"/>
      <point x="771" y="776" type="line"/>
      <point x="464" y="1210" type="line"/>
      <point x="142" y="776" type="line"/>
    </contour>
  </outline>
</glyph>
<glyph name="a" format="1">
  <advance width="946"/>
  <unicode hex="0061"/>
  <outline>
    <contour>
      <point x="394" y="32" type="curve" smooth="yes"/>
      <point x="487" y="32"/>
      <point x="568" y="61"/>
      <point x="693" y="133" type="curve"/>
      <point x="693" y="371" type="line"/>
      <point x="596" y="386"/>
      <point x="501" y="405"/>
      <point x="409" y="405" type="curve" smooth="yes"/>
      <point x="293" y="405"/>
      <point x="189" y="358"/>
      <point x="189" y="218" type="curve" smooth="yes"/>
      <point x="189" y="118"/>
      <point x="262" y="32"/>
    </contour>
    <contour>
      <point x="389" y="-22" type="curve" smooth="yes"/>
      <point x="225" y="-22"/>
      <point x="118" y="76"/>
      <point x="118" y="217" type="curve" smooth="yes"/>
      <point x="118" y="397"/>
      <point x="252" y="455"/>
      <point x="405" y="455" type="curve" smooth="yes"/>
      <point x="497" y="455"/>
      <point x="598" y="439"/>
      <point x="693" y="422" type="curve"/>
      <point x="693" y="536" type="line" smooth="yes"/>
      <point x="693" y="697"/>
      <point x="599" y="769"/>
      <point x="465" y="769" type="curve" smooth="yes"/>
      <point x="372" y="769"/>
      <point x="270" y="738"/>
      <point x="185" y="701" type="curve"/>
      <point x="163" y="756" type="line"/>
      <point x="269" y="803"/>
      <point x="382" y="826"/>
      <point x="460" y="826" type="curve" smooth="yes"/>
      <point x="696" y="826"/>
      <point x="767" y="682"/>
      <point x="767" y="553" type="curve" smooth="yes"/>
      <point x="767" y="55" type="line"/>
      <point x="891" y="55" type="line"/>
      <point x="891" y="0" type="line"/>
      <point x="709" y="0" type="line"/>
      <point x="696" y="81" type="line"/>
      <point x="582" y="10"/>
      <point x="485" y="-22"/>
    </contour>
  </outline>
</glyph>
<glyph name="b" format="1">
  <advance width="1046"/>
  <unicode hex="0062"/>
  <outline>
    <contour>
      <point x="561" y="-22" type="curve" smooth="yes"/>
      <point x="461" y="-22"/>
      <point x="357" y="19"/>
      <point x="279" y="89" type="curve"/>
      <point x="279" y="0" type="line"/>
      <point x="62" y="0" type="line"/>
      <point x="62" y="55" type="line"/>
      <point x="205" y="55" type="line"/>
      <point x="205" y="1119" type="line"/>
      <point x="69" y="1119" type="line"/>
      <point x="69" y="1174" type="line"/>
      <point x="279" y="1174" type="line"/>
      <point x="279" y="718" type="line"/>
      <point x="369" y="786"/>
      <point x="481" y="826"/>
      <point x="579" y="826" type="curve" smooth="yes"/>
      <point x="823" y="826"/>
      <point x="986" y="670"/>
      <point x="986" y="412" type="curve" smooth="yes"/>
      <point x="986" y="142"/>
      <point x="812" y="-22"/>
    </contour>
    <contour>
      <point x="279" y="658" type="curve"/>
      <point x="279" y="148" type="line"/>
      <point x="358" y="76"/>
      <point x="458" y="35"/>
      <point x="553" y="35" type="curve" smooth="yes"/>
      <point x="769" y="35"/>
      <point x="911" y="173"/>
      <point x="911" y="400" type="curve" smooth="yes"/>
      <point x="911" y="629"/>
      <point x="775" y="768"/>
      <point x="567" y="768" type="curve" smooth="yes"/>
      <point x="476" y="768"/>
      <point x="369" y="728"/>
    </contour>
  </outline>
</glyph>
<glyph name="d" format="1">
  <advance width="1022"/>
  <unicode hex="0064"/>
  <outline>
    <contour>
      <point x="864" y="804" type="move" name="caron.alt"/>
    </contour>
    <contour>
      <point x="62" y="405" type="curve" smooth="yes"/>
      <point x="62" y="659"/>
      <point x="232" y="826"/>
      <point x="461" y="826" type="curve" smooth="yes"/>
      <point x="568" y="826"/>
      <point x="687" y="785"/>
      <point x="774" y="720" type="curve"/>
      <point x="774" y="1119" type="line"/>
      <point x="639" y="1119" type="line"/>
      <point x="639" y="1174" type="line"/>
      <point x="849" y="1174" type="line"/>
      <point x="849" y="55" type="line"/>
      <point x="985" y="55" type="line"/>
      <point x="985" y="0" type="line"/>
      <point x="774" y="0" type="line"/>
      <point x="774" y="82" type="line"/>
      <point x="692" y="18"/>
      <point x="583" y="-22"/>
      <point x="484" y="-22" type="curve" smooth="yes"/>
      <point x="242" y="-22"/>
      <point x="62" y="149"/>
    </contour>
    <contour>
      <point x="774" y="140" type="curve"/>
      <point x="774" y="665" type="line"/>
      <point x="686" y="729"/>
      <point x="571" y="769"/>
      <point x="470" y="769" type="curve" smooth="yes"/>
      <point x="276" y="769"/>
      <point x="137" y="620"/>
      <point x="137" y="395" type="curve" smooth="yes"/>
      <point x="137" y="180"/>
      <point x="287" y="35"/>
      <point x="493" y="35" type="curve" smooth="yes"/>
      <point x="586" y="35"/>
      <point x="693" y="76"/>
    </contour>
  </outline>
</glyph>
<glyph name="f" format="1">
  <advance width="679"/>
  <unicode hex="0066"/>
  <outline>
    <contour>
      <point x="105" y="0" type="line"/>
      <point x="105" y="55" type="line"/>
      <point x="258" y="55" type="line"/>
      <point x="258" y="749" type="line"/>
      <point x="103" y="749" type="line"/>
      <point x="103" y="804" type="line"/>
      <point x="258" y="804" type="line"/>
      <point x="258" y="1019" type="line" smooth="yes"/>
      <point x="258" y="1131"/>
      <point x="324" y="1199"/>
      <point x="440" y="1199" type="curve" smooth="yes"/>
      <point x="535" y="1199"/>
      <point x="602" y="1151"/>
      <point x="611" y="1053" type="curve"/>
      <point x="554" y="1033" type="line"/>
      <point x="544" y="1105"/>
      <point x="508" y="1143"/>
      <point x="443" y="1143" type="curve" smooth="yes"/>
      <point x="379" y="1143"/>
      <point x="336" y="1101"/>
      <point x="336" y="1018" type="curve" smooth="yes"/>
      <point x="336" y="804" type="line"/>
      <point x="566" y="804" type="line"/>
      <point x="566" y="749" type="line"/>
      <point x="336" y="749" type="line"/>
      <point x="336" y="55" type="line"/>
      <point x="532" y="55" type="line"/>
      <point x="532" y="0" type="line"/>
    </contour>
  </outline>
</glyph>
<glyph name="g" format="1">
  <advance width="1024"/>
  <unicode hex="0067"/>
  <outline>
    <contour>
      <point x="63" y="412" type="curve" smooth="yes"/>
      <point x="63" y="661"/>
      <point x="233" y="824"/>
      <point x="462" y="824" type="curve" smooth="yes"/>
      <point x="573" y="824"/>
      <point x="698" y="780"/>
      <point x="786" y="712" type="curve"/>
      <point x="786" y="804" type="line"/>
      <point x="997" y="804" type="line"/>
      <point x="997" y="749" type="line"/>
      <point x="861" y="749" type="line"/>
      <point x="861" y="-17" type="line" smooth="yes"/>
      <point x="861" y="-267"/>
      <point x="712" y="-377"/>
      <point x="478" y="-377" type="curve" smooth="yes"/>
      <point x="391" y="-377"/>
      <point x="293" y="-358"/>
      <point x="189" y="-330" type="curve"/>
      <point x="202" y="-272" type="line"/>
      <point x="311" y="-303"/>
      <point x="403" y="-318"/>
      <point x="479" y="-318" type="curve" smooth="yes"/>
      <point x="685" y="-318"/>
      <point x="787" y="-212"/>
      <point x="787" y="-30" type="curve" smooth="yes"/>
      <point x="787" y="105" type="line"/>
      <point x="704" y="37"/>
      <point x="589" y="-7"/>
      <point x="485" y="-7" type="curve" smooth="yes"/>
      <point x="244" y="-7"/>
      <point x="63" y="161"/>
    </contour>
    <contour>
      <point x="786" y="659" type="line"/>
      <point x="697" y="726"/>
      <point x="576" y="769"/>
      <point x="471" y="769" type="curve" smooth="yes"/>
      <point x="277" y="769"/>
      <point x="138" y="622"/>
      <point x="138" y="402" type="curve" smooth="yes"/>
      <point x="138" y="191"/>
      <point x="288" y="49"/>
      <point x="494" y="49" type="curve" smooth="yes"/>
      <point x="592" y="49"/>
      <point x="704" y="93"/>
      <point x="787" y="161" type="curve"/>
    </contour>
  </outline>
</glyph>
<glyph name="j" format="1">
  <advance width="430"/>
  <unicode hex="006A"/>
  <outline>
    <contour>
      <point x="241" y="1009" type="curve" smooth="yes"/>
      <point x="205" y="1009"/>
      <point x="178" y="1034"/>
      <point x="178" y="1069" type="curve" smooth="yes"/>
      <point x="178" y="1103"/>
      <point x="205" y="1128"/>
      <point x="241" y="1128" type="curve" smooth="yes"/>
      <point x="279" y="1128"/>
      <point x="306" y="1103"/>
      <point x="306" y="1069" type="curve" smooth="yes"/>
      <point x="306" y="1034"/>
      <point x="279" y="1009"/>
    </contour>
    <contour>
      <point x="19" y="-260" type="line"/>
      <point x="19" y="-204" type="line"/>
      <point x="88" y="-204" type="line" smooth="yes"/>
      <point x="223" y="-204"/>
      <point x="223" y="-148"/>
      <point x="223" y="-34" type="curve" smooth="yes"/>
      <point x="223" y="752" type="line"/>
      <point x="64" y="752" type="line"/>
      <point x="64" y="805" type="line"/>
      <point x="301" y="805" type="line"/>
      <point x="301" y="-18" type="line" smooth="yes"/>
      <point x="301" y="-53" type="line" smooth="yes"/>
      <point x="301" y="-148"/>
      <point x="290" y="-260"/>
      <point x="96" y="-260" type="curve" smooth="yes"/>
    </contour>
  </outline>
</glyph>
<glyph name="k" format="1">
  <advance width="986"/>
  <unicode hex="006B"/>
  <outline>
    <contour>
      <point x="731" y="0" type="line"/>
      <point x="285" y="415" type="line"/>
      <point x="285" y="55" type="line"/>
      <point x="429" y="55" type="line"/>
      <point x="429" y="0" type="line"/>
      <point x="61" y="0" type="line"/>
      <point x="61" y="55" type="line"/>
      <point x="210" y="55" type="line"/>
      <point x="210" y="1119" type="line"/>
      <point x="67" y="1119" type="line"/>
      <point x="67" y="1174" type="line"/>
      <point x="285" y="1174" type="line"/>
      <point x="285" y="426" type="line"/>
      <point x="710" y="749" type="line"/>
      <point x="548" y="749" type="line"/>
      <point x="548" y="804" type="line"/>
      <point x="939" y="804" type="line"/>
      <point x="939" y="749" type="line"/>
      <point x="794" y="749" type="line"/>
      <point x="370" y="419" type="line"/>
      <point x="767" y="55" type="line"/>
      <point x="944" y="55" type="line"/>
      <point x="944" y="0" type="line"/>
    </contour>
    <contour>
      <point x="593" y="992" type="move" name="top"/>
    </contour>
  </outline>
</glyph>
<glyph name="m" format="1">
  <advance width="1583"/>
  <unicode hex="006D"/>
  <outline>
    <contour>
      <point x="37" y="0" type="line"/>
      <point x="37" y="55" type="line"/>
      <point x="211" y="55" type="line"/>
      <point x="211" y="749" type="line"/>
      <point x="40" y="749" type="line"/>
      <point x="40" y="804" type="line"/>
      <point x="285" y="804" type="line"/>
      <point x="285" y="720" type="line"/>
      <point x="397" y="784"/>
      <point x="513" y="826"/>
      <point x="603" y="826" type="curve" smooth="yes"/>
      <point x="706" y="826"/>
      <point x="786" y="780"/>
      <point x="825" y="700" type="curve"/>
      <point x="946" y="775"/>
      <point x="1077" y="826"/>
      <point x="1176" y="826" type="curve" smooth="yes"/>
      <point x="1324" y="826"/>
      <point x="1425" y="732"/>
      <point x="1425" y="575" type="curve" smooth="yes"/>
      <point x="1425" y="55" type="line"/>
      <point x="1578" y="55" type="line"/>
      <point x="1578" y="0" type="line"/>
      <point x="1184" y="0" type="line"/>
      <point x="1184" y="55" type="line"/>
      <point x="1351" y="55" type="line"/>
      <point x="1351" y="583" type="line" smooth="yes"/>
      <point x="1351" y="697"/>
      <point x="1278" y="766"/>
      <point x="1162" y="766" type="curve" smooth="yes"/>
      <point x="1085" y="766"/>
      <point x="964" y="722"/>
      <point x="842" y="654" type="curve"/>
      <point x="848" y="630"/>
      <point x="852" y="604"/>
      <point x="852" y="575" type="curve" smooth="yes"/>
      <point x="852" y="55" type="line"/>
      <point x="1005" y="55" type="line"/>
      <point x="1005" y="0" type="line"/>
      <point x="611" y="0" type="line"/>
      <point x="611" y="55" type="line"/>
      <point x="778" y="55" type="line"/>
      <point x="778" y="583" type="line" smooth="yes"/>
      <point x="778" y="697"/>
      <point x="705" y="766"/>
      <point x="589" y="766" type="curve" smooth="yes"/>
      <point x="515" y="766"/>
      <point x="401" y="726"/>
      <point x="285" y="663" type="curve"/>
      <point x="285" y="55" type="line"/>
      <point x="452" y="55" type="line"/>
      <point x="452" y="0" type="line"/>
    </contour>
  </outline>
</glyph>
<glyph name="n" format="1">
  <advance width="1024"/>
  <unicode hex="006E"/>
  <outline>
    <contour>
      <point x="37" y="0" type="line"/>
      <point x="37" y="55" type="line"/>
      <point x="211" y="55" type="line"/>
      <point x="211" y="749" type="line"/>
      <point x="40" y="749" type="line"/>
      <point x="40" y="804" type="line"/>
      <point x="285" y="804" type="line"/>
      <point x="285" y="712" type="line"/>
      <point x="401" y="781"/>
      <point x="523" y="826"/>
      <point x="617" y="826" type="curve" smooth="yes"/>
      <point x="765" y="826"/>
      <point x="866" y="732"/>
      <point x="866" y="575" type="curve" smooth="yes"/>
      <point x="866" y="55" type="line"/>
      <point x="1019" y="55" type="line"/>
      <point x="1019" y="0" type="line"/>
      <point x="625" y="0" type="line"/>
      <point x="625" y="55" type="line"/>
      <point x="792" y="55" type="line"/>
      <point x="792" y="583" type="line" smooth="yes"/>
      <point x="792" y="697"/>
      <point x="719" y="766"/>
      <point x="603" y="766" type="curve" smooth="yes"/>
      <point x="526" y="766"/>
      <point x="406" y="723"/>
      <point x="285" y="655" type="curve"/>
      <point x="285" y="55" type="line"/>
      <point x="452" y="55" type="line"/>
      <point x="452" y="0" type="line"/>
    </contour>
  </outline>
</glyph>
<glyph name="p" format="1">
  <advance width="1040"/>
  <unicode hex="0070"/>
  <outline>
    <contour>
      <point x="555" y="-22" type="curve" smooth="yes"/>
      <point x="456" y="-22"/>
      <point x="352" y="18"/>
      <point x="274" y="88" type="curve"/>
      <point x="274" y="-262" type="line"/>
      <point x="414" y="-262" type="line"/>
      <point x="414" y="-317" type="line"/>
      <point x="58" y="-317" type="line"/>
      <point x="58" y="-262" type="line"/>
      <point x="199" y="-262" type="line"/>
      <point x="199" y="749" type="line"/>
      <point x="71" y="749" type="line"/>
      <point x="71" y="804" type="line"/>
      <point x="271" y="804" type="line"/>
      <point x="273" y="718" type="line"/>
      <point x="363" y="786"/>
      <point x="475" y="826"/>
      <point x="573" y="826" type="curve" smooth="yes"/>
      <point x="817" y="826"/>
      <point x="980" y="670"/>
      <point x="980" y="412" type="curve" smooth="yes"/>
      <point x="980" y="142"/>
      <point x="806" y="-22"/>
    </contour>
    <contour>
      <point x="274" y="147" type="line"/>
      <point x="352" y="76"/>
      <point x="453" y="35"/>
      <point x="547" y="35" type="curve" smooth="yes"/>
      <point x="763" y="35"/>
      <point x="905" y="173"/>
      <point x="905" y="400" type="curve" smooth="yes"/>
      <point x="905" y="629"/>
      <point x="769" y="768"/>
      <point x="561" y="768" type="curve" smooth="yes"/>
      <point x="470" y="768"/>
      <point x="364" y="727"/>
      <point x="274" y="658" type="curve"/>
    </contour>
    <contour>
      <point x="565" y="805" type="move" name="top"/>
    </contour>
  </outline>
</glyph>
<glyph name="r" format="1">
  <advance width="778"/>
  <unicode hex="0072"/>
  <outline>
    <contour>
      <point x="356" y="457" type="curve"/>
      <point x="354" y="463" type="line"/>
      <point x="354" y="55" type="line"/>
      <point x="521" y="55" type="line"/>
      <point x="521" y="0" type="line"/>
      <point x="106" y="0" type="line"/>
      <point x="106" y="55" type="line"/>
      <point x="280" y="55" type="line"/>
      <point x="280" y="749" type="line"/>
      <point x="109" y="749" type="line"/>
      <point x="109" y="804" type="line"/>
      <point x="354" y="804" type="line"/>
      <point x="354" y="649" type="line"/>
      <point x="400" y="777"/>
      <point x="482" y="822"/>
      <point x="562" y="822" type="curve" smooth="yes"/>
      <point x="617" y="822"/>
      <point x="664" y="809"/>
      <point x="712" y="783" type="curve"/>
      <point x="695" y="721" type="line"/>
      <point x="652" y="747"/>
      <point x="614" y="760"/>
      <point x="560" y="760" type="curve" smooth="yes"/>
      <point x="452" y="760"/>
      <point x="356" y="648"/>
    </contour>
  </outline>
</glyph>
<glyph name="s" format="1">
  <advance width="910"/>
  <unicode hex="0073"/>
  <outline>
    <contour>
      <point x="485" y="-22" type="curve" smooth="yes"/>
      <point x="365" y="-22"/>
      <point x="255" y="23"/>
      <point x="203" y="80" type="curve"/>
      <point x="203" y="0" type="line"/>
      <point x="141" y="0" type="line"/>
      <point x="141" y="246" type="line"/>
      <point x="199" y="246" type="line"/>
      <point x="204" y="144" type="line"/>
      <point x="265" y="69"/>
      <point x="367" y="32"/>
      <point x="479" y="32" type="curve" smooth="yes"/>
      <point x="624" y="32"/>
      <point x="729" y="95"/>
      <point x="729" y="193" type="curve" smooth="yes"/>
      <point x="729" y="313"/>
      <point x="658" y="340"/>
      <point x="496" y="374" type="curve" smooth="yes"/>
      <point x="366" y="402" type="line" smooth="yes"/>
      <point x="233" y="431"/>
      <point x="145" y="482"/>
      <point x="145" y="603" type="curve" smooth="yes"/>
      <point x="145" y="756"/>
      <point x="282" y="826"/>
      <point x="437" y="826" type="curve" smooth="yes"/>
      <point x="529" y="826"/>
      <point x="632" y="793"/>
      <point x="694" y="734" type="curve"/>
      <point x="694" y="805" type="line"/>
      <point x="759" y="805" type="line"/>
      <point x="759" y="541" type="line"/>
      <point x="699" y="541" type="line"/>
      <point x="692" y="669" type="line"/>
      <point x="648" y="727"/>
      <point x="534" y="770"/>
      <point x="444" y="770" type="curve" smooth="yes"/>
      <point x="331" y="770"/>
      <point x="219" y="719"/>
      <point x="219" y="607" type="curve" smooth="yes"/>
      <point x="219" y="522"/>
      <point x="290" y="488"/>
      <point x="387" y="466" type="curve" smooth="yes"/>
      <point x="516" y="437" type="line" smooth="yes"/>
      <point x="685" y="399"/>
      <point x="799" y="370"/>
      <point x="799" y="200" type="curve" smooth="yes"/>
      <point x="799" y="45"/>
      <point x="645" y="-22"/>
    </contour>
  </outline>
</glyph>
<glyph name="u" format="1">
  <advance width="1031"/>
  <unicode hex="0075"/>
  <outline>
    <contour>
      <point x="438" y="-21" type="curve" smooth="yes"/>
      <point x="237" y="-21"/>
      <point x="187" y="122"/>
      <point x="187" y="216" type="curve" smooth="yes"/>
      <point x="187" y="749" type="line"/>
      <point x="35" y="749" type="line"/>
      <point x="35" y="804" type="line"/>
      <point x="262" y="804" type="line"/>
      <point x="262" y="222" type="line" smooth="yes"/>
      <point x="262" y="125"/>
      <point x="317" y="37"/>
      <point x="447" y="37" type="curve" smooth="yes"/>
      <point x="574" y="37"/>
      <point x="666" y="86"/>
      <point x="765" y="156" type="curve"/>
      <point x="765" y="749" type="line"/>
      <point x="615" y="749" type="line"/>
      <point x="615" y="804" type="line"/>
      <point x="839" y="804" type="line"/>
      <point x="839" y="54" type="line"/>
      <point x="991" y="54" type="line"/>
      <point x="991" y="0" type="line"/>
      <point x="773" y="0" type="line"/>
      <point x="767" y="100" type="line"/>
      <point x="666" y="28"/>
      <point x="560" y="-21"/>
    </contour>
  </outline>
</glyph>
<glyph name="y" format="1">
  <advance width="1069"/>
  <unicode hex="0079"/>
  <outline>
    <contour>
      <point x="230" y="-262" type="line"/>
      <point x="230" y="-196" type="line"/>
      <point x="312" y="-196" type="line" smooth="yes"/>
      <point x="430" y="-196"/>
      <point x="457" y="-182"/>
      <point x="498" y="-81" type="curve"/>
      <point x="559" y="60" type="line"/>
      <point x="518" y="60" type="line"/>
      <point x="205" y="749" type="line"/>
      <point x="42" y="749" type="line"/>
      <point x="42" y="804" type="line"/>
      <point x="423" y="804" type="line"/>
      <point x="423" y="749" type="line"/>
      <point x="283" y="749" type="line"/>
      <point x="572" y="94" type="line"/>
      <point x="846" y="749" type="line"/>
      <point x="681" y="749" type="line"/>
      <point x="681" y="804" type="line"/>
      <point x="1053" y="804" type="line"/>
      <point x="1053" y="749" type="line"/>
      <point x="922" y="749" type="line"/>
      <point x="566" y="-88" type="line"/>
      <point x="510" y="-223"/>
      <point x="469" y="-262"/>
      <point x="316" y="-262" type="curve" smooth="yes"/>
    </contour>
  </outline>
</glyph>
<glyph name="braceleft" format="1">
  <advance width="454"/>
  <unicode hex="007B"/>
  <outline>
    <contour>
      <point x="347" y="-30" type="line" smooth="yes"/>
      <point x="167" y="-30"/>
      <point x="163" y="93"/>
      <point x="163" y="318" type="curve" smooth="yes"/>
      <point x="163" y="481"/>
      <point x="155" y="533"/>
      <point x="24" y="533" type="curve"/>
      <point x="24" y="615" type="line"/>
      <point x="162" y="615"/>
      <point x="163" y="674"/>
      <point x="163" y="849" type="curve" smooth="yes"/>
      <point x="163" y="1055"/>
      <point x="168" y="1178"/>
      <point x="347" y="1178" type="curve" smooth="yes"/>
      <point x="409" y="1178" type="line"/>
      <point x="409" y="1124" type="line"/>
      <point x="276" y="1124"/>
      <point x="245" y="1100"/>
      <point x="245" y="941" type="curve" smooth="yes"/>
      <point x="245" y="706"/>
      <point x="233" y="583"/>
      <point x="117" y="574" type="curve"/>
      <point x="232" y="564"/>
      <point x="245" y="443"/>
      <point x="245" y="211" type="curve" smooth="yes"/>
      <point x="245" y="49"/>
      <point x="275" y="23"/>
      <point x="409" y="23" type="curve"/>
      <point x="409" y="-30" type="line"/>
    </contour>
  </outline>
</glyph>
<glyph name="braceright" format="1">
  <advance width="456"/>
  <unicode hex="007D"/>
  <outline>
    <contour>
      <point x="47" y="-30" type="line"/>
      <point x="47" y="23" type="line"/>
      <point x="182" y="23"/>
      <point x="211" y="49"/>
      <point x="211" y="211" type="curve" smooth="yes"/>
      <point x="211" y="443"/>
      <point x="225" y="565"/>
      <point x="340" y="574" type="curve"/>
      <point x="224" y="583"/>
      <point x="212" y="706"/>
      <point x="212" y="941" type="curve" smooth="yes"/>
      <point x="212" y="1100"/>
      <point x="181" y="1124"/>
      <point x="47" y="1124" type="curve"/>
      <point x="47" y="1178" type="line"/>
      <point x="109" y="1178" type="line" smooth="yes"/>
      <point x="290" y="1178"/>
      <point x="295" y="1055"/>
      <point x="295" y="879" type="curve" smooth="yes"/>
      <point x="295" y="668"/>
      <point x="303" y="615"/>
      <point x="433" y="615" type="curve"/>
      <point x="433" y="533" type="line"/>
      <point x="295" y="533"/>
      <point x="295" y="476"/>
      <point x="295" y="268" type="curve" smooth="yes"/>
      <point x="295" y="93"/>
      <point x="290" y="-30"/>
      <point x="109" y="-30" type="curve" smooth="yes"/>
    </contour>
  </outline>
</glyph>
<glyph name="cent" format="1">
  <advance width="919"/>
  <unicode hex="00A2"/>
  <outline>
    <component base="c"/>
    <contour>
      <point x="336" y="-241" type="line"/>
      <point x="298" y="-234" type="line"/>
      <point x="612" y="1043" type="line"/>
      <point x="650" y="1038" type="line"/>
    </contour>
  </outline>
</glyph>
<glyph name="sterling" format="1">
  <advance width="1047"/>
  <unicode hex="00A3"/>
  <outline>
    <contour>
      <point x="285" y="-21" type="curve" smooth="yes"/>
      <point x="149" y="-21"/>
      <point x="69" y="48"/>
      <point x="69" y="150" type="curve" smooth="yes"/>
      <point x="69" y="259"/>
      <point x="153" y="335"/>
      <point x="288" y="335" type="curve" smooth="yes"/>
      <point x="367" y="335"/>
      <point x="458" y="287"/>
      <point x="505" y="229" type="curve"/>
      <point x="512" y="255"/>
      <point x="517" y="286"/>
      <point x="517" y="324" type="curve" smooth="yes"/>
      <point x="517" y="388"/>
      <point x="502" y="469"/>
      <point x="457" y="561" type="curve"/>
      <point x="194" y="561" type="line"/>
      <point x="194" y="615" type="line"/>
      <point x="428" y="615" type="line"/>
      <point x="379" y="710"/>
      <point x="309" y="829"/>
      <point x="309" y="932" type="curve" smooth="yes"/>
      <point x="309" y="1126"/>
      <point x="460" y="1251"/>
      <point x="657" y="1251" type="curve" smooth="yes"/>
      <point x="867" y="1251"/>
      <point x="976" y="1137"/>
      <point x="976" y="952" type="curve"/>
      <point x="910" y="952" type="line"/>
      <point x="910" y="1088"/>
      <point x="837" y="1191"/>
      <point x="659" y="1191" type="curve" smooth="yes"/>
      <point x="498" y="1191"/>
      <point x="380" y="1090"/>
      <point x="380" y="936" type="curve" smooth="yes"/>
      <point x="380" y="827"/>
      <point x="448" y="728"/>
      <point x="507" y="615" type="curve"/>
      <point x="900" y="615" type="line"/>
      <point x="900" y="561" type="line"/>
      <point x="532" y="561" type="line"/>
      <point x="564" y="479"/>
      <point x="578" y="409"/>
      <point x="578" y="346" type="curve" smooth="yes"/>
      <point x="578" y="291"/>
      <point x="568" y="242"/>
      <point x="551" y="192" type="curve"/>
      <point x="615" y="118"/>
      <point x="709" y="57"/>
      <point x="794" y="57" type="curve" smooth="yes"/>
      <point x="929" y="57"/>
      <point x="978" y="153"/>
      <point x="979" y="295" type="curve"/>
      <point x="1030" y="295" type="line"/>
      <point x="1032" y="283"/>
      <point x="1032" y="266"/>
      <point x="1032" y="254" type="curve" smooth="yes"/>
      <point x="1032" y="101"/>
      <point x="959" y="-7"/>
      <point x="795" y="-7" type="curve" smooth="yes"/>
      <point x="698" y="-7"/>
      <point x="603" y="47"/>
      <point x="524" y="136" type="curve"/>
      <point x="482" y="46"/>
      <point x="399" y="-21"/>
    </contour>
    <contour>
      <point x="284" y="29" type="curve" smooth="yes"/>
      <point x="363" y="29"/>
      <point x="460" y="83"/>
      <point x="484" y="174" type="curve"/>
      <point x="431" y="238"/>
      <point x="348" y="281"/>
      <point x="286" y="281" type="curve" smooth="yes"/>
      <point x="190" y="281"/>
      <point x="130" y="230"/>
      <point x="130" y="150" type="curve" smooth="yes"/>
      <point x="130" y="76"/>
      <point x="190" y="29"/>
    </contour>
  </outline>
</glyph>
<glyph name="dieresis" format="1">
  <advance width="368"/>
  <unicode hex="00A8"/>
  <outline>
    <contour>
      <point x="14" y="944" type="curve" smooth="yes"/>
      <point x="-18" y="944"/>
      <point x="-38" y="963"/>
      <point x="-38" y="995" type="curve" smooth="yes"/>
      <point x="-38" y="1026"/>
      <point x="-18" y="1046"/>
      <point x="14" y="1046" type="curve" smooth="yes"/>
      <point x="47" y="1046"/>
      <point x="68" y="1026"/>
      <point x="68" y="995" type="curve" smooth="yes"/>
      <point x="68" y="963"/>
      <point x="47" y="944"/>
    </contour>
    <contour>
      <point x="348" y="943" type="curve" smooth="yes"/>
      <point x="316" y="943"/>
      <point x="296" y="962"/>
      <point x="296" y="994" type="curve" smooth="yes"/>
      <point x="296" y="1026"/>
      <point x="316" y="1046"/>
      <point x="348" y="1046" type="curve" smooth="yes"/>
      <point x="382" y="1046"/>
      <point x="403" y="1026"/>
      <point x="403" y="994" type="curve" smooth="yes"/>
      <point x="402" y="962"/>
      <point x="381" y="943"/>
    </contour>
  </outline>
</glyph>
<glyph name="guillemotleft" format="1">
  <advance width="786"/>
  <unicode hex="00AB"/>
  <outline>
    <contour>
      <point x="330" y="276" type="line"/>
      <point x="56" y="659" type="line"/>
      <point x="330" y="1040" type="line"/>
      <point x="382" y="1040" type="line"/>
      <point x="170" y="659" type="line"/>
      <point x="382" y="276" type="line"/>
    </contour>
    <contour>
      <point x="605" y="276" type="line"/>
      <point x="330" y="659" type="line"/>
      <point x="605" y="1040" type="line"/>
      <point x="657" y="1040" type="line"/>
      <point x="443" y="659" type="line"/>
      <point x="657" y="276" type="line"/>
    </contour>
  </outline>
</glyph>
<glyph name="logicalnot" format="1">
  <advance width="886"/>
  <unicode hex="00AC"/>
  <outline>
    <contour>
      <point x="725" y="309" type="line"/>
      <point x="725" y="627" type="line"/>
      <point x="83" y="627" type="line"/>
      <point x="83" y="684" type="line"/>
      <point x="778" y="684" type="line"/>
      <point x="778" y="309" type="line"/>
    </contour>
  </outline>
</glyph>
<glyph name="registered" format="1">
  <advance width="1517"/>
  <unicode hex="00AE"/>
  <outline>
    <contour>
      <point x="436" y="235" type="line"/>
      <point x="436" y="275" type="line"/>
      <point x="531" y="275" type="line"/>
      <point x="531" y="920" type="line"/>
      <point x="429" y="920" type="line"/>
      <point x="429" y="961" type="line"/>
      <point x="796" y="961" type="line" smooth="yes"/>
      <point x="934" y="961"/>
      <point x="1013" y="889"/>
      <point x="1013" y="764" type="curve" smooth="yes"/>
      <point x="1013" y="659"/>
      <point x="939" y="594"/>
      <point x="811" y="585" type="curve"/>
      <point x="985" y="277" type="line"/>
      <point x="1087" y="277" type="line"/>
      <point x="1087" y="235" type="line"/>
      <point x="949" y="235" type="line"/>
      <point x="756" y="580" type="line"/>
      <point x="584" y="580" type="line"/>
      <point x="584" y="275" type="line"/>
      <point x="680" y="275" type="line"/>
      <point x="680" y="235" type="line"/>
    </contour>
    <contour>
      <point x="584" y="624" type="line"/>
      <point x="796" y="624" type="line" smooth="yes"/>
      <point x="899" y="624"/>
      <point x="960" y="675"/>
      <point x="960" y="764" type="curve" smooth="yes"/>
      <point x="960" y="864"/>
      <point x="899" y="920"/>
      <point x="797" y="920" type="curve" smooth="yes"/>
      <point x="584" y="920" type="line"/>
    </contour>
    <contour>
      <point x="736" y="32" type="curve" smooth="yes"/>
      <point x="1099" y="32"/>
      <point x="1280" y="310"/>
      <point x="1280" y="578" type="curve" smooth="yes"/>
      <point x="1280" y="845"/>
      <point x="1099" y="1130"/>
      <point x="736" y="1130" type="curve" smooth="yes"/>
      <point x="369" y="1130"/>
      <point x="192" y="845"/>
      <point x="192" y="578" type="curve" smooth="yes"/>
      <point x="192" y="302"/>
      <point x="366" y="32"/>
    </contour>
    <contour>
      <point x="736" y="-22" type="curve" smooth="yes"/>
      <point x="734" y="-22" type="line" smooth="yes"/>
      <point x="324" y="-22"/>
      <point x="127" y="280"/>
      <point x="127" y="577" type="curve" smooth="yes"/>
      <point x="127" y="876"/>
      <point x="328" y="1184"/>
      <point x="736" y="1184" type="curve" smooth="yes"/>
      <point x="1145" y="1184"/>
      <point x="1345" y="875"/>
      <point x="1345" y="577" type="curve" smooth="yes"/>
      <point x="1345" y="279"/>
      <point x="1147" y="-22"/>
    </contour>
  </outline>
</glyph>
<glyph name="macron" format="1">
  <advance width="331"/>
  <unicode hex="00AF"/>
  <outline>
    <contour>
      <point x="-24" y="925" type="line"/>
      <point x="-24" y="974" type="line"/>
      <point x="362" y="974" type="line"/>
      <point x="362" y="925" type="line"/>
    </contour>
    <contour>
      <point x="173" y="804" type="move" name="_top"/>
    </contour>
  </outline>
</glyph>
<glyph name="degree" format="1">
  <advance width="868"/>
  <unicode hex="00B0"/>
  <outline>
    <contour>
      <point x="435" y="782" type="curve" smooth="yes"/>
      <point x="546" y="782"/>
      <point x="625" y="860"/>
      <point x="625" y="962" type="curve" smooth="yes"/>
      <point x="625" y="1062"/>
      <point x="546" y="1140"/>
      <point x="434" y="1140" type="curve" smooth="yes"/>
      <point x="323" y="1140"/>
      <point x="245" y="1062"/>
      <point x="244" y="961" type="curve" smooth="yes"/>
      <point x="244" y="860"/>
      <point x="323" y="782"/>
    </contour>
    <contour>
      <point x="434" y="729" type="curve" smooth="yes"/>
      <point x="287" y="729"/>
      <point x="182" y="831"/>
      <point x="182" y="961" type="curve" smooth="yes"/>
      <point x="182" y="1091"/>
      <point x="287" y="1193"/>
      <point x="434" y="1193" type="curve" smooth="yes"/>
      <point x="582" y="1193"/>
      <point x="687" y="1091"/>
      <point x="687" y="961" type="curve" smooth="yes"/>
      <point x="687" y="831"/>
      <point x="582" y="729"/>
    </contour>
  </outline>
</glyph>
<glyph name="plusminus" format="1">
  <advance width="723"/>
  <unicode hex="00B1"/>
  <outline>
    <contour>
      <point x="334" y="119" type="line"/>
      <point x="334" y="515" type="line"/>
      <point x="-18" y="515" type="line"/>
      <point x="-18" y="577" type="line"/>
      <point x="334" y="577" type="line"/>
      <point x="334" y="959" type="line"/>
      <point x="393" y="959" type="line"/>
      <point x="393" y="577" type="line"/>
      <point x="744" y="577" type="line"/>
      <point x="744" y="515" type="line"/>
      <point x="393" y="515" type="line"/>
      <point x="393" y="119" type="line"/>
    </contour>
    <contour>
      <point x="-20" y="0" type="line"/>
      <point x="-20" y="59" type="line"/>
      <point x="741" y="59" type="line"/>
      <point x="741" y="0" type="line"/>
    </contour>
  </outline>
</glyph>
<glyph name="uni00B5" format="1">
  <advance width="1031"/>
  <unicode hex="00B5"/>
  <outline>
    <contour>
      <point x="187" y="-264" type="line"/>
      <point x="187" y="388" type="line"/>
      <point x="262" y="388" type="line"/>
      <point x="262" y="-264" type="line"/>
    </contour>
    <component base="u"/>
  </outline>
</glyph>
<glyph name="periodcentered" format="1">
  <advance width="477"/>
  <unicode hex="00B7"/>
  <outline>
    <contour>
      <point x="248" y="494" type="curve" smooth="yes"/>
      <point x="212" y="494"/>
      <point x="185" y="519"/>
      <point x="185" y="554" type="curve" smooth="yes"/>
      <point x="185" y="587"/>
      <point x="212" y="612"/>
      <point x="248" y="612" type="curve" smooth="yes"/>
      <point x="286" y="612"/>
      <point x="313" y="587"/>
      <point x="313" y="554" type="curve" smooth="yes"/>
      <point x="313" y="519"/>
      <point x="286" y="494"/>
    </contour>
  </outline>
</glyph>
<glyph name="onesuperior" format="1">
  <advance width="620"/>
  <unicode hex="00B9"/>
  <outline>
    <contour>
      <point x="154" y="546" type="line"/>
      <point x="154" y="593" type="line"/>
      <point x="283" y="593" type="line"/>
      <point x="283" y="1255" type="line"/>
      <point x="168" y="1232" type="line"/>
      <point x="159" y="1281" type="line"/>
      <point x="346" y="1316" type="line"/>
      <point x="346" y="593" type="line"/>
      <point x="470" y="593" type="line"/>
      <point x="470" y="546" type="line"/>
    </contour>
  </outline>
</glyph>
<glyph name="guillemotright" format="1">
  <advance width="786"/>
  <unicode hex="00BB"/>
  <outline>
    <contour>
      <point x="129" y="276" type="line"/>
      <point x="341" y="659" type="line"/>
      <point x="129" y="1040" type="line"/>
      <point x="181" y="1040" type="line"/>
      <point x="455" y="659" type="line"/>
      <point x="181" y="276" type="line"/>
    </contour>
    <contour>
      <point x="404" y="276" type="line"/>
      <point x="616" y="659" type="line"/>
      <point x="404" y="1040" type="line"/>
      <point x="456" y="1040" type="line"/>
      <point x="730" y="659" type="line"/>
      <point x="456" y="276" type="line"/>
    </contour>
  </outline>
</glyph>
<glyph name="onequarter" format="1">
  <advance width="1534"/>
  <unicode hex="00BC"/>
  <outline>
    <contour>
      <point x="1171" y="0" type="line"/>
      <point x="1171" y="47" type="line"/>
      <point x="1289" y="47" type="line"/>
      <point x="1289" y="257" type="line"/>
      <point x="937" y="257" type="line"/>
      <point x="924" y="300" type="line"/>
      <point x="1281" y="807" type="line"/>
      <point x="1345" y="807" type="line"/>
      <point x="1345" y="304" type="line"/>
      <point x="1456" y="304" type="line"/>
      <point x="1456" y="257" type="line"/>
      <point x="1345" y="257" type="line"/>
      <point x="1345" y="47" type="line"/>
      <point x="1451" y="47" type="line"/>
      <point x="1451" y="0" type="line"/>
    </contour>
    <contour>
      <point x="137" y="360" type="line"/>
      <point x="137" y="407" type="line"/>
      <point x="258" y="407" type="line"/>
      <point x="258" y="1101" type="line"/>
      <point x="136" y="1098" type="line"/>
      <point x="135" y="1145" type="line"/>
      <point x="316" y="1152" type="line"/>
      <point x="316" y="407" type="line"/>
      <point x="437" y="407" type="line"/>
      <point x="437" y="360" type="line"/>
    </contour>
    <contour>
      <point x="386" y="-10" type="line"/>
      <point x="1173" y="1172" type="line"/>
      <point x="1230" y="1172" type="line"/>
      <point x="446" y="-10" type="line"/>
    </contour>
    <contour>
      <point x="987" y="304" type="line"/>
      <point x="1289" y="304" type="line"/>
      <point x="1289" y="737" type="line"/>
    </contour>
  </outline>
</glyph>
<glyph name="multiply" format="1">
  <advance width="615"/>
  <unicode hex="00D7"/>
  <outline>
    <contour>
      <point x="528" y="337" type="line"/>
      <point x="312" y="553" type="line"/>
      <point x="95" y="337" type="line"/>
      <point x="54" y="379" type="line"/>
      <point x="271" y="594" type="line"/>
      <point x="55" y="809" type="line"/>
      <point x="97" y="850" type="line"/>
      <point x="313" y="637" type="line"/>
      <point x="530" y="853" type="line"/>
      <point x="570" y="811" type="line"/>
      <point x="356" y="594" type="line"/>
      <point x="569" y="379" type="line"/>
    </contour>
  </outline>
</glyph>
<glyph name="Oslash" format="1">
  <advance width="1568"/>
  <unicode hex="00D8"/>
  <outline>
    <contour>
      <point x="273" y="-72" type="line"/>
      <point x="232" y="-42" type="line"/>
      <point x="1207" y="1215" type="line"/>
      <point x="1246" y="1186" type="line"/>
    </contour>
    <component base="O" xOffset="6" yOffset="-8"/>
  </outline>
</glyph>
<glyph name="germandbls" format="1">
  <advance width="1187"/>
  <unicode hex="00DF"/>
  <outline>
    <contour>
      <point x="97" y="0" type="line"/>
      <point x="97" y="60" type="line"/>
      <point x="250" y="60" type="line"/>
      <point x="250" y="866" type="line" smooth="yes"/>
      <point x="250" y="1119"/>
      <point x="375" y="1258"/>
      <point x="604" y="1258" type="curve" smooth="yes"/>
      <point x="824" y="1258"/>
      <point x="950" y="1160"/>
      <point x="950" y="975" type="curve" smooth="yes"/>
      <point x="950" y="826"/>
      <point x="866" y="717"/>
      <point x="732" y="685" type="curve"/>
      <point x="987" y="660"/>
      <point x="1097" y="528"/>
      <point x="1097" y="356" type="curve" smooth="yes"/>
      <point x="1097" y="141"/>
      <point x="903" y="0"/>
      <point x="583" y="0" type="curve"/>
      <point x="583" y="60" type="line"/>
      <point x="841" y="60"/>
      <point x="1020" y="165"/>
      <point x="1020" y="356" type="curve" smooth="yes"/>
      <point x="1020" y="540"/>
      <point x="863" y="652"/>
      <point x="597" y="653" type="curve"/>
      <point x="597" y="700" type="line"/>
      <point x="779" y="709"/>
      <point x="876" y="812"/>
      <point x="876" y="974" type="curve" smooth="yes"/>
      <point x="876" y="1112"/>
      <point x="788" y="1200"/>
      <point x="604" y="1200" type="curve" smooth="yes"/>
      <point x="418" y="1200"/>
      <point x="329" y="1073"/>
      <point x="329" y="871" type="curve" smooth="yes"/>
      <point x="329" y="60" type="line"/>
      <point x="450" y="60" type="line"/>
      <point x="450" y="0" type="line"/>
    </contour>
  </outline>
</glyph>
<glyph name="oslash" format="1">
  <advance width="1013"/>
  <unicode hex="00F8"/>
  <outline>
    <contour>
      <point x="205" y="-178" type="line"/>
      <point x="171" y="-156" type="line"/>
      <point x="836" y="982" type="line"/>
      <point x="871" y="961" type="line"/>
    </contour>
    <component base="o"/>
  </outline>
</glyph>
<glyph name="dotlessi" format="1">
  <advance width="562"/>
  <unicode hex="0131"/>
  <outline>
    <contour>
      <point x="103" y="0" type="line"/>
      <point x="103" y="55" type="line"/>
      <point x="277" y="55" type="line"/>
      <point x="277" y="749" type="line"/>
      <point x="106" y="749" type="line"/>
      <point x="106" y="804" type="line"/>
      <point x="351" y="804" type="line"/>
      <point x="351" y="55" type="line"/>
      <point x="518" y="55" type="line"/>
      <point x="518" y="0" type="line"/>
    </contour>
    <contour>
      <point x="297" y="804" type="move" name="top"/>
    </contour>
  </outline>
</glyph>
<glyph name="Lslash" format="1">
  <advance width="1232"/>
  <unicode hex="0141"/>
  <outline>
    <component base="L"/>
    <contour>
      <point x="125" y="427" type="line"/>
      <point x="125" y="490" type="line"/>
      <point x="556" y="759" type="line"/>
      <point x="556" y="691" type="line"/>
    </contour>
  </outline>
</glyph>
<glyph name="Lslash" format="1">
  <advance width="1232"/>
  <unicode hex="0141"/>
  <outline>
    <contour>
      <point x="125" y="427" type="line"/>
      <point x="125" y="490" type="line"/>
      <point x="556" y="759" type="line"/>
      <point x="556" y="691" type="line"/>
    </contour>
    <component base="L"/>
  </outline>
</glyph>
<glyph name="lslash" format="1">
  <advance width="467"/>
  <unicode hex="0142"/>
  <outline>
    <component base="l"/>
    <contour>
      <point x="52" y="441" type="line"/>
      <point x="51" y="509" type="line"/>
      <point x="425" y="736" type="line"/>
      <point x="425" y="665" type="line"/>
    </contour>
  </outline>
</glyph>
<glyph name="oe" format="1">
  <advance width="1773"/>
  <unicode hex="0153"/>
  <outline>
    <contour>
      <point x="497" y="-22" type="curve" smooth="yes"/>
      <point x="245" y="-22"/>
      <point x="69" y="155"/>
      <point x="69" y="405" type="curve" smooth="yes"/>
      <point x="69" y="651"/>
      <point x="246" y="826"/>
      <point x="497" y="826" type="curve" smooth="yes"/>
      <point x="686" y="826"/>
      <point x="834" y="726"/>
      <point x="893" y="570" type="curve"/>
      <point x="954" y="740"/>
      <point x="1110" y="826"/>
      <point x="1267" y="826" type="curve" smooth="yes"/>
      <point x="1461" y="826"/>
      <point x="1653" y="698"/>
      <point x="1659" y="384" type="curve"/>
      <point x="930" y="384" type="line"/>
      <point x="941" y="157"/>
      <point x="1108" y="34"/>
      <point x="1285" y="34" type="curve" smooth="yes"/>
      <point x="1406" y="34"/>
      <point x="1541" y="97"/>
      <point x="1609" y="178" type="curve"/>
      <point x="1640" y="128" type="line"/>
      <point x="1542" y="27"/>
      <point x="1412" y="-22"/>
      <point x="1284" y="-22" type="curve" smooth="yes"/>
      <point x="1112" y="-22"/>
      <point x="954" y="72"/>
      <point x="892" y="239" type="curve"/>
      <point x="833" y="81"/>
      <point x="686" y="-22"/>
    </contour>
    <contour>
      <point x="497" y="35" type="curve" smooth="yes"/>
      <point x="708" y="35"/>
      <point x="856" y="188"/>
      <point x="856" y="406" type="curve" smooth="yes"/>
      <point x="856" y="618"/>
      <point x="708" y="768"/>
      <point x="497" y="768" type="curve" smooth="yes"/>
      <point x="287" y="768"/>
      <point x="141" y="618"/>
      <point x="141" y="405" type="curve" smooth="yes"/>
      <point x="141" y="188"/>
      <point x="287" y="35"/>
    </contour>
    <contour>
      <point x="930" y="434" type="curve"/>
      <point x="1591" y="434" type="line"/>
      <point x="1568" y="661"/>
      <point x="1430" y="770"/>
      <point x="1266" y="770" type="curve" smooth="yes"/>
      <point x="1083" y="770"/>
      <point x="940" y="639"/>
    </contour>
  </outline>
</glyph>
<glyph name="uni0237" format="1">
  <advance width="398"/>
  <unicode hex="0237"/>
  <outline>
    <contour>
      <point x="23" y="-240" type="line"/>
      <point x="23" y="-208" type="line"/>
      <point x="85" y="-208" type="line" smooth="yes"/>
      <point x="215" y="-208"/>
      <point x="221" y="-162"/>
      <point x="221" y="-68" type="curve" smooth="yes"/>
      <point x="221" y="-39" type="line" smooth="yes"/>
      <point x="221" y="770" type="line"/>
      <point x="48" y="770" type="line"/>
      <point x="48" y="804" type="line"/>
      <point x="265" y="804" type="line"/>
      <point x="265" y="-34" type="line" smooth="yes"/>
      <point x="265" y="-48"/>
      <point x="266" y="-64"/>
      <point x="266" y="-82" type="curve" smooth="yes"/>
      <point x="266" y="-152"/>
      <point x="250" y="-240"/>
      <point x="95" y="-240" type="curve" smooth="yes"/>
    </contour>
    <contour>
      <point x="228" y="804" type="move" name="top"/>
    </contour>
  </outline>
</glyph>
<glyph name="circumflex" format="1">
  <advance width="401"/>
  <unicode hex="02C6"/>
  <outline>
    <contour>
      <point x="52" y="927" type="line"/>
      <point x="-7" y="927" type="line"/>
      <point x="166" y="1237" type="line"/>
      <point x="229" y="1237" type="line"/>
      <point x="402" y="927" type="line"/>
      <point x="343" y="927" type="line"/>
      <point x="198" y="1191" type="line"/>
    </contour>
  </outline>
</glyph>
<glyph name="caron" format="1">
  <advance width="398"/>
  <unicode hex="02C7"/>
  <outline>
    <contour>
      <point x="166" y="926" type="line"/>
      <point x="-7" y="1233" type="line"/>
      <point x="51" y="1233" type="line"/>
      <point x="196" y="979" type="line"/>
      <point x="338" y="1233" type="line"/>
      <point x="394" y="1233" type="line"/>
      <point x="224" y="926" type="line"/>
    </contour>
  </outline>
</glyph>
<glyph name="ring" format="1">
  <advance width="353"/>
  <unicode hex="02DA"/>
  <outline>
    <contour>
      <point x="175" y="884" type="curve" smooth="yes"/>
      <point x="94" y="884"/>
      <point x="47" y="933"/>
      <point x="46" y="1008" type="curve" smooth="yes"/>
      <point x="47" y="1081"/>
      <point x="94" y="1129"/>
      <point x="174" y="1129" type="curve" smooth="yes"/>
      <point x="254" y="1129"/>
      <point x="301" y="1081"/>
      <point x="301" y="1008" type="curve" smooth="yes"/>
      <point x="301" y="933"/>
      <point x="254" y="884"/>
    </contour>
    <contour>
      <point x="175" y="922" type="curve" smooth="yes"/>
      <point x="227" y="922"/>
      <point x="258" y="955"/>
      <point x="258" y="1008" type="curve" smooth="yes"/>
      <point x="258" y="1058"/>
      <point x="227" y="1091"/>
      <point x="175" y="1091" type="curve" smooth="yes"/>
      <point x="122" y="1091"/>
      <point x="90" y="1058"/>
      <point x="90" y="1008" type="curve" smooth="yes"/>
      <point x="90" y="955"/>
      <point x="122" y="922"/>
    </contour>
  </outline>
</glyph>
<glyph name="tilde" format="1">
  <advance width="470"/>
  <unicode hex="02DC"/>
  <outline>
    <contour>
      <point x="359" y="934" type="curve" smooth="yes"/>
      <point x="268" y="934"/>
      <point x="183" y="1017"/>
      <point x="119" y="1017" type="curve" smooth="yes"/>
      <point x="86" y="1017"/>
      <point x="72" y="1001"/>
      <point x="57" y="937" type="curve"/>
      <point x="22" y="937" type="line"/>
      <point x="32" y="1023"/>
      <point x="63" y="1072"/>
      <point x="127" y="1072" type="curve" smooth="yes"/>
      <point x="204" y="1072"/>
      <point x="298" y="989"/>
      <point x="358" y="989" type="curve" smooth="yes"/>
      <point x="392" y="989"/>
      <point x="410" y="999"/>
      <point x="425" y="1068" type="curve"/>
      <point x="459" y="1068" type="line"/>
      <point x="451" y="984"/>
      <point x="431" y="934"/>
    </contour>
  </outline>
</glyph>
<glyph name="hungarumlaut" format="1">
  <advance width="436"/>
  <unicode hex="02DD"/>
  <outline>
    <contour>
      <point x="376" y="1287" type="line"/>
      <point x="455" y="1287" type="line"/>
      <point x="309" y="987" type="line"/>
      <point x="267" y="987" type="line"/>
    </contour>
    <contour>
      <point x="168" y="1287" type="line"/>
      <point x="247" y="1287" type="line"/>
      <point x="101" y="987" type="line"/>
      <point x="59" y="987" type="line"/>
    </contour>
  </outline>
</glyph>
<glyph name="uni0307" format="1">
  <advance width="381"/>
  <unicode hex="0307"/>
  <outline>
    <contour>
      <point x="190" y="968" type="curve" smooth="yes"/>
      <point x="145" y="968"/>
      <point x="123" y="1001"/>
      <point x="123" y="1030" type="curve" smooth="yes"/>
      <point x="123" y="1062"/>
      <point x="144" y="1093"/>
      <point x="190" y="1093" type="curve" smooth="yes"/>
      <point x="236" y="1093"/>
      <point x="257" y="1062"/>
      <point x="257" y="1030" type="curve"/>
      <point x="258" y="1001"/>
      <point x="235" y="968"/>
    </contour>
  </outline>
</glyph>
<glyph name="uni0311" format="1">
  <advance width="962"/>
  <unicode hex="0311"/>
  <outline>
    <contour>
      <point x="352" y="934" type="line"/>
      <point x="371" y="1018"/>
      <point x="414" y="1059"/>
      <point x="484" y="1059" type="curve" smooth="yes"/>
      <point x="487" y="1059" type="line" smooth="yes"/>
      <point x="490" y="1059" type="line" smooth="yes"/>
      <point x="562" y="1059"/>
      <point x="604" y="1018"/>
      <point x="619" y="934" type="curve"/>
      <point x="591" y="934" type="line"/>
      <point x="573" y="996"/>
      <point x="539" y="1026"/>
      <point x="487" y="1026" type="curve" smooth="yes"/>
      <point x="434" y="1026"/>
      <point x="400" y="996"/>
      <point x="382" y="934" type="curve"/>
    </contour>
    <contour>
      <point x="488" y="804" type="move" name="_top"/>
    </contour>
  </outline>
</glyph>
<glyph name="commaaccent" format="1">
  <advance width="405"/>
  <unicode hex="0326"/>
  <outline>
    <contour>
      <point x="167" y="-419" type="line" smooth="yes"/>
      <point x="167" y="-387" type="line"/>
      <point x="238" y="-381"/>
      <point x="245" y="-318"/>
      <point x="245" y="-235" type="curve"/>
      <point x="179" y="-235" type="line"/>
      <point x="179" y="-125" type="line"/>
      <point x="294" y="-125" type="line"/>
      <point x="294" y="-247" type="line" smooth="yes"/>
      <point x="294" y="-339"/>
      <point x="272" y="-419"/>
      <point x="169" y="-419" type="curve" smooth="yes"/>
    </contour>
  </outline>
</glyph>
<glyph name="endash" format="1">
  <advance width="697"/>
  <unicode hex="2013"/>
  <outline>
    <contour>
      <point x="0" y="449" type="line"/>
      <point x="0" y="504" type="line"/>
      <point x="697" y="504" type="line"/>
      <point x="697" y="449" type="line"/>
    </contour>
  </outline>
</glyph>
<glyph name="emdash" format="1">
  <advance width="1018"/>
  <unicode hex="2014"/>
  <outline>
    <contour>
      <point x="0" y="454" type="line"/>
      <point x="0" y="508" type="line"/>
      <point x="1018" y="508" type="line"/>
      <point x="1018" y="454" type="line"/>
    </contour>
  </outline>
</glyph>
<glyph name="quoteleft" format="1">
  <advance width="421"/>
  <unicode hex="2018"/>
  <outline>
    <contour>
      <point x="134" y="1000" type="line"/>
      <point x="134" y="1112" type="line" smooth="yes"/>
      <point x="134" y="1201"/>
      <point x="163" y="1277"/>
      <point x="258" y="1278" type="curve"/>
      <point x="258" y="1237" type="line"/>
      <point x="197" y="1215"/>
      <point x="195" y="1190"/>
      <point x="195" y="1110" type="curve"/>
      <point x="246" y="1110" type="line"/>
      <point x="246" y="1000" type="line"/>
    </contour>
  </outline>
</glyph>
<glyph name="quoteright" format="1">
  <advance width="429"/>
  <unicode hex="2019"/>
  <outline>
    <contour>
      <point x="174" y="978" type="curve"/>
      <point x="174" y="1019" type="line"/>
      <point x="236" y="1040"/>
      <point x="237" y="1066"/>
      <point x="238" y="1146" type="curve"/>
      <point x="186" y="1146" type="line"/>
      <point x="186" y="1256" type="line"/>
      <point x="299" y="1256" type="line"/>
      <point x="299" y="1144" type="line" smooth="yes"/>
      <point x="299" y="1056"/>
      <point x="270" y="979"/>
    </contour>
  </outline>
</glyph>
<glyph name="quotesinglbase" format="1">
  <advance width="424"/>
  <unicode hex="201A"/>
  <outline>
    <contour>
      <point x="178" y="-174" type="curve"/>
      <point x="178" y="-133" type="line"/>
      <point x="240" y="-112"/>
      <point x="241" y="-87"/>
      <point x="242" y="-7" type="curve"/>
      <point x="189" y="-7" type="line"/>
      <point x="189" y="103" type="line"/>
      <point x="301" y="103" type="line"/>
      <point x="301" y="-8" type="line"/>
      <point x="302" y="-96"/>
      <point x="274" y="-173"/>
    </contour>
  </outline>
</glyph>
<glyph name="quotedblleft" format="1">
  <advance width="682"/>
  <unicode hex="201C"/>
  <outline>
    <contour>
      <point x="170" y="1000" type="line"/>
      <point x="170" y="1112" type="line" smooth="yes"/>
      <point x="170" y="1201"/>
      <point x="199" y="1277"/>
      <point x="295" y="1278" type="curve"/>
      <point x="295" y="1237" type="line"/>
      <point x="233" y="1215"/>
      <point x="232" y="1190"/>
      <point x="231" y="1110" type="curve"/>
      <point x="283" y="1110" type="line"/>
      <point x="283" y="1000" type="line"/>
    </contour>
    <contour>
      <point x="378" y="1000" type="line"/>
      <point x="378" y="1112" type="line" smooth="yes"/>
      <point x="378" y="1201"/>
      <point x="407" y="1276"/>
      <point x="502" y="1278" type="curve"/>
      <point x="502" y="1237" type="line"/>
      <point x="441" y="1215"/>
      <point x="439" y="1190"/>
      <point x="439" y="1110" type="curve"/>
      <point x="490" y="1110" type="line"/>
      <point x="490" y="1000" type="line"/>
    </contour>
  </outline>
</glyph>
<glyph name="quotedblright" format="1">
  <advance width="686"/>
  <unicode hex="201D"/>
  <outline>
    <contour>
      <point x="187" y="978" type="curve"/>
      <point x="187" y="1019" type="line"/>
      <point x="248" y="1040"/>
      <point x="249" y="1066"/>
      <point x="251" y="1146" type="curve"/>
      <point x="199" y="1146" type="line"/>
      <point x="199" y="1256" type="line"/>
      <point x="311" y="1256" type="line"/>
      <point x="311" y="1144" type="line" smooth="yes"/>
      <point x="311" y="1056"/>
      <point x="282" y="979"/>
    </contour>
    <contour>
      <point x="393" y="978" type="curve"/>
      <point x="393" y="1019" type="line"/>
      <point x="455" y="1040"/>
      <point x="456" y="1066"/>
      <point x="457" y="1146" type="curve"/>
      <point x="405" y="1146" type="line"/>
      <point x="405" y="1256" type="line"/>
      <point x="518" y="1256" type="line"/>
      <point x="518" y="1144" type="line" smooth="yes"/>
      <point x="518" y="1056"/>
      <point x="489" y="979"/>
    </contour>
  </outline>
</glyph>
<glyph name="quotedblbase" format="1">
  <advance width="701"/>
  <unicode hex="201E"/>
  <outline>
    <contour>
      <point x="187" y="-174" type="curve"/>
      <point x="187" y="-133" type="line"/>
      <point x="248" y="-112"/>
      <point x="249" y="-87"/>
      <point x="250" y="-7" type="curve"/>
      <point x="197" y="-7" type="line"/>
      <point x="197" y="103" type="line"/>
      <point x="310" y="103" type="line"/>
      <point x="310" y="-8" type="line" smooth="yes"/>
      <point x="310" y="-96"/>
      <point x="282" y="-173"/>
    </contour>
    <contour>
      <point x="412" y="-174" type="curve"/>
      <point x="412" y="-133" type="line"/>
      <point x="474" y="-112"/>
      <point x="474" y="-88"/>
      <point x="474" y="-7" type="curve"/>
      <point x="423" y="-7" type="line"/>
      <point x="423" y="103" type="line"/>
      <point x="535" y="103" type="line"/>
      <point x="535" y="-8" type="line" smooth="yes"/>
      <point x="535" y="-96"/>
      <point x="506" y="-173"/>
    </contour>
  </outline>
</glyph>
<glyph name="dagger" format="1">
  <advance width="458"/>
  <unicode hex="2020"/>
  <outline>
    <contour>
      <point x="191" y="574" type="curve" smooth="yes"/>
      <point x="191" y="656"/>
      <point x="192" y="723"/>
      <point x="212" y="825" type="curve"/>
      <point x="5" y="806" type="line"/>
      <point x="5" y="878" type="line"/>
      <point x="212" y="866" type="line"/>
      <point x="180" y="1105" type="line"/>
      <point x="278" y="1105" type="line"/>
      <point x="247" y="866" type="line"/>
      <point x="451" y="878" type="line"/>
      <point x="451" y="806" type="line"/>
      <point x="247" y="825" type="line"/>
      <point x="266" y="725"/>
      <point x="267" y="659"/>
      <point x="267" y="578" type="curve" smooth="yes"/>
      <point x="267" y="532" type="line"/>
      <point x="268" y="513"/>
      <point x="269" y="494"/>
      <point x="269" y="474" type="curve" smooth="yes"/>
      <point x="269" y="348"/>
      <point x="247" y="216"/>
      <point x="247" y="30" type="curve"/>
      <point x="212" y="30" type="line"/>
      <point x="212" y="221"/>
      <point x="190" y="351"/>
      <point x="190" y="477" type="curve" smooth="yes"/>
      <point x="190" y="508"/>
      <point x="191" y="542"/>
    </contour>
  </outline>
</glyph>
<glyph name="bullet" format="1">
  <advance width="726"/>
  <unicode hex="2022"/>
  <outline>
    <contour>
      <point x="363" y="451" type="curve" smooth="yes"/>
      <point x="226" y="451"/>
      <point x="118" y="558"/>
      <point x="118" y="688" type="curve" smooth="yes"/>
      <point x="118" y="820"/>
      <point x="226" y="923"/>
      <point x="363" y="923" type="curve" smooth="yes"/>
      <point x="500" y="923"/>
      <point x="609" y="820"/>
      <point x="609" y="688" type="curve" smooth="yes"/>
      <point x="609" y="557"/>
      <point x="500" y="451"/>
    </contour>
  </outline>
</glyph>
<glyph name="guilsinglleft" format="1">
  <advance width="448"/>
  <unicode hex="2039"/>
  <outline>
    <contour>
      <point x="284" y="276" type="line"/>
      <point x="11" y="659" type="line"/>
      <point x="284" y="1040" type="line"/>
      <point x="336" y="1040" type="line"/>
      <point x="124" y="659" type="line"/>
      <point x="336" y="276" type="line"/>
    </contour>
  </outline>
</glyph>
<glyph name="guilsinglright" format="1">
  <advance width="448"/>
  <unicode hex="203A"/>
  <outline>
    <contour>
      <point x="112" y="276" type="line"/>
      <point x="324" y="659" type="line"/>
      <point x="112" y="1040" type="line"/>
      <point x="164" y="1040" type="line"/>
      <point x="438" y="660" type="line"/>
      <point x="164" y="276" type="line"/>
    </contour>
  </outline>
</glyph>
<glyph name="fraction" format="1">
  <advance width="411"/>
  <unicode hex="2044"/>
  <outline>
    <contour>
      <point x="-54" y="-30" type="line"/>
      <point x="389" y="1282" type="line"/>
      <point x="453" y="1282" type="line"/>
      <point x="16" y="-30" type="line"/>
    </contour>
  </outline>
</glyph>
<glyph name="foursuperior" format="1">
  <advance width="769"/>
  <unicode hex="2074"/>
  <outline>
    <contour>
      <point x="325" y="546" type="line"/>
      <point x="325" y="593" type="line"/>
      <point x="444" y="593" type="line"/>
      <point x="444" y="779" type="line"/>
      <point x="80" y="779" type="line"/>
      <point x="68" y="826" type="line"/>
      <point x="436" y="1326" type="line"/>
      <point x="501" y="1326" type="line"/>
      <point x="501" y="826" type="line"/>
      <point x="683" y="826" type="line"/>
      <point x="683" y="779" type="line"/>
      <point x="501" y="779" type="line"/>
      <point x="501" y="593" type="line"/>
      <point x="620" y="593" type="line"/>
      <point x="620" y="546" type="line"/>
    </contour>
    <contour>
      <point x="134" y="826" type="line"/>
      <point x="444" y="826" type="line"/>
      <point x="444" y="1256" type="line"/>
    </contour>
  </outline>
</glyph>
<glyph name="trademark" format="1">
  <advance width="1631"/>
  <unicode hex="2122"/>
  <outline>
    <contour>
      <point x="800" y="564" type="line"/>
      <point x="800" y="609" type="line"/>
      <point x="873" y="609" type="line"/>
      <point x="873" y="1108" type="line"/>
      <point x="800" y="1108" type="line"/>
      <point x="800" y="1152" type="line"/>
      <point x="920" y="1152" type="line"/>
      <point x="1140" y="694" type="line"/>
      <point x="1350" y="1152" type="line"/>
      <point x="1472" y="1152" type="line"/>
      <point x="1472" y="1108" type="line"/>
      <point x="1400" y="1108" type="line"/>
      <point x="1400" y="609" type="line"/>
      <point x="1472" y="609" type="line"/>
      <point x="1472" y="564" type="line"/>
      <point x="1273" y="564" type="line"/>
      <point x="1273" y="609" type="line"/>
      <point x="1347" y="609" type="line"/>
      <point x="1347" y="1032" type="line"/>
      <point x="1145" y="608" type="line"/>
      <point x="1134" y="608" type="line"/>
      <point x="922" y="1034" type="line"/>
      <point x="922" y="609" type="line"/>
      <point x="998" y="609" type="line"/>
      <point x="998" y="564" type="line"/>
    </contour>
    <contour>
      <point x="291" y="564" type="line"/>
      <point x="291" y="607" type="line"/>
      <point x="368" y="607" type="line"/>
      <point x="368" y="1104" type="line"/>
      <point x="185" y="1104" type="line"/>
      <point x="185" y="946" type="line"/>
      <point x="136" y="946" type="line"/>
      <point x="136" y="1152" type="line"/>
      <point x="657" y="1152" type="line"/>
      <point x="657" y="946" type="line"/>
      <point x="607" y="946" type="line"/>
      <point x="607" y="1104" type="line"/>
      <point x="419" y="1104" type="line"/>
      <point x="419" y="607" type="line"/>
      <point x="497" y="607" type="line"/>
      <point x="497" y="564" type="line"/>
    </contour>
  </outline>
</glyph>
<glyph name="partialdiff" format="1">
  <advance width="1016"/>
  <unicode hex="2202"/>
  <outline>
    <contour>
      <point x="401" y="-21" type="curve" smooth="yes"/>
      <point x="201" y="-21"/>
      <point x="134" y="105"/>
      <point x="134" y="244" type="curve" smooth="yes"/>
      <point x="134" y="419"/>
      <point x="254" y="707"/>
      <point x="561" y="707" type="curve" smooth="yes"/>
      <point x="713" y="707"/>
      <point x="804" y="624"/>
      <point x="821" y="550" type="curve"/>
      <point x="809" y="545" type="line"/>
      <point x="809" y="569" type="line" smooth="yes"/>
      <point x="809" y="969"/>
      <point x="686" y="1131"/>
      <point x="516" y="1131" type="curve" smooth="yes"/>
      <point x="409" y="1131"/>
      <point x="324" y="1080"/>
      <point x="324" y="963" type="curve"/>
      <point x="284" y="963"/>
      <point x="260" y="981"/>
      <point x="260" y="1027" type="curve" smooth="yes"/>
      <point x="260" y="1115"/>
      <point x="352" y="1179"/>
      <point x="496" y="1179" type="curve" smooth="yes"/>
      <point x="734" y="1179"/>
      <point x="852" y="972"/>
      <point x="852" y="645" type="curve" smooth="yes"/>
      <point x="852" y="352"/>
      <point x="740" y="-21"/>
    </contour>
    <contour>
      <point x="427" y="26" type="curve" smooth="yes"/>
      <point x="643" y="26"/>
      <point x="775" y="269"/>
      <point x="801" y="511" type="curve"/>
      <point x="778" y="604"/>
      <point x="699" y="660"/>
      <point x="572" y="660" type="curve" smooth="yes"/>
      <point x="306" y="660"/>
      <point x="218" y="384"/>
      <point x="218" y="242" type="curve" smooth="yes"/>
      <point x="218" y="128"/>
      <point x="268" y="26"/>
    </contour>
  </outline>
</glyph>
<glyph name="uni2206" format="1">
  <advance width="775"/>
  <unicode hex="2206"/>
  <outline>
    <contour>
      <point x="63" y="0" type="line"/>
      <point x="63" y="60" type="line"/>
      <point x="369" y="1024" type="line"/>
      <point x="425" y="1024" type="line"/>
      <point x="731" y="60" type="line"/>
      <point x="731" y="0" type="line"/>
    </contour>
    <contour>
      <point x="114" y="64" type="curve"/>
      <point x="655" y="64" type="line"/>
      <point x="655" y="64"/>
      <point x="389" y="922"/>
      <point x="385" y="938" type="curve"/>
      <point x="382" y="922"/>
      <point x="114" y="64"/>
    </contour>
  </outline>
</glyph>
<glyph name="summation" format="1">
  <advance width="1232"/>
  <unicode hex="2211"/>
  <outline>
    <contour>
      <point x="121" y="0" type="line"/>
      <point x="121" y="55" type="line"/>
      <point x="268" y="55" type="line"/>
      <point x="666" y="592" type="line"/>
      <point x="276" y="1097" type="line"/>
      <point x="121" y="1097" type="line"/>
      <point x="121" y="1152" type="line"/>
      <point x="1056" y="1152" type="line"/>
      <point x="1056" y="798" type="line"/>
      <point x="992" y="798" type="line"/>
      <point x="992" y="1097" type="line"/>
      <point x="353" y="1097" type="line"/>
      <point x="727" y="618" type="line"/>
      <point x="727" y="580" type="line"/>
      <point x="337" y="55" type="line"/>
      <point x="1014" y="55" type="line"/>
      <point x="1014" y="361" type="line"/>
      <point x="1079" y="361" type="line"/>
      <point x="1079" y="0" type="line"/>
    </contour>
  </outline>
</glyph>
<glyph name="minus" format="1">
  <advance width="916"/>
  <unicode hex="2212"/>
  <outline>
    <contour>
      <point x="99" y="541" type="line"/>
      <point x="99" y="607" type="line"/>
      <point x="817" y="607" type="line"/>
      <point x="817" y="541" type="line"/>
    </contour>
  </outline>
</glyph>
<glyph name="radical" format="1">
  <advance width="1129"/>
  <unicode hex="221A"/>
  <outline>
    <contour>
      <point x="499" y="-14" type="line"/>
      <point x="231" y="583" type="line"/>
      <point x="46" y="583" type="line"/>
      <point x="46" y="635" type="line"/>
      <point x="294" y="635" type="line"/>
      <point x="527" y="99" type="line"/>
      <point x="944" y="1363" type="line"/>
      <point x="1001" y="1363" type="line"/>
      <point x="545" y="-14" type="line"/>
    </contour>
  </outline>
</glyph>
<glyph name="approxequal" format="1">
  <advance width="729"/>
  <unicode hex="2248"/>
  <outline>
    <contour>
      <point x="657" y="762" type="curve"/>
      <point x="657" y="688" type="line"/>
      <point x="604" y="648"/>
      <point x="555" y="630"/>
      <point x="500" y="630" type="curve" smooth="yes"/>
      <point x="453" y="630"/>
      <point x="410" y="642"/>
      <point x="341" y="670" type="curve" smooth="yes"/>
      <point x="277" y="695"/>
      <point x="234" y="710"/>
      <point x="188" y="710" type="curve" smooth="yes"/>
      <point x="145" y="710"/>
      <point x="100" y="691"/>
      <point x="55" y="655" type="curve"/>
      <point x="55" y="730" type="line"/>
      <point x="101" y="768"/>
      <point x="148" y="784"/>
      <point x="198" y="784" type="curve" smooth="yes"/>
      <point x="252" y="784"/>
      <point x="301" y="768"/>
      <point x="374" y="739" type="curve" smooth="yes"/>
      <point x="435" y="714"/>
      <point x="471" y="704"/>
      <point x="509" y="704" type="curve" smooth="yes"/>
      <point x="556" y="704"/>
      <point x="601" y="727"/>
    </contour>
    <contour>
      <point x="657" y="533" type="curve"/>
      <point x="657" y="459" type="line"/>
      <point x="604" y="420"/>
      <point x="555" y="402"/>
      <point x="500" y="402" type="curve" smooth="yes"/>
      <point x="453" y="402"/>
      <point x="410" y="413"/>
      <point x="341" y="442" type="curve" smooth="yes"/>
      <point x="277" y="466"/>
      <point x="234" y="481"/>
      <point x="188" y="481" type="curve" smooth="yes"/>
      <point x="145" y="481"/>
      <point x="100" y="462"/>
      <point x="55" y="427" type="curve"/>
      <point x="55" y="502" type="line"/>
      <point x="101" y="539"/>
      <point x="148" y="555"/>
      <point x="198" y="555" type="curve" smooth="yes"/>
      <point x="252" y="555"/>
      <point x="301" y="540"/>
      <point x="374" y="511" type="curve" smooth="yes"/>
      <point x="435" y="486"/>
      <point x="471" y="475"/>
      <point x="509" y="475" type="curve" smooth="yes"/>
      <point x="556" y="475"/>
      <point x="601" y="498"/>
    </contour>
  </outline>
</glyph>
<glyph name="greaterequal" format="1">
  <advance width="683"/>
  <unicode hex="2265"/>
  <outline>
    <contour>
      <point x="25" y="188" type="line"/>
      <point x="25" y="253" type="line"/>
      <point x="588" y="552" type="line"/>
      <point x="25" y="853" type="line"/>
      <point x="25" y="919" type="line"/>
      <point x="689" y="570" type="line"/>
      <point x="689" y="535" type="line"/>
    </contour>
    <contour>
      <point x="25" y="0" type="line"/>
      <point x="25" y="55" type="line"/>
      <point x="689" y="55" type="line"/>
      <point x="689" y="0" type="line"/>
    </contour>
  </outline>
</glyph>
<glyph name="lozenge" format="1">
  <advance width="986"/>
  <unicode hex="25CA"/>
  <outline>
    <contour>
      <point x="468" y="-26" type="line"/>
      <point x="39" y="620" type="line"/>
      <point x="468" y="1268" type="line"/>
      <point x="518" y="1268" type="line"/>
      <point x="947" y="622" type="line"/>
      <point x="518" y="-26" type="line"/>
    </contour>
    <contour>
      <point x="496" y="38" type="line"/>
      <point x="861" y="622" type="line"/>
      <point x="496" y="1203" type="line"/>
      <point x="130" y="622" type="line"/>
    </contour>
  </outline>
</glyph>
<glyph name="ffi" format="1">
  <advance width="1709"/>
  <unicode hex="FB03"/>
  <outline>
    <component base="fi" xOffset="643"/>
    <contour>
      <point x="178" y="0" type="line"/>
      <point x="178" y="55" type="line"/>
      <point x="327" y="55" type="line"/>
      <point x="327" y="749" type="line"/>
      <point x="174" y="749" type="line"/>
      <point x="174" y="804" type="line"/>
      <point x="327" y="804" type="line"/>
      <point x="327" y="994" type="line" smooth="yes"/>
      <point x="327" y="1133"/>
      <point x="457" y="1214"/>
      <point x="644" y="1214" type="curve" smooth="yes"/>
      <point x="759" y="1214"/>
      <point x="897" y="1170"/>
      <point x="1002" y="1097" type="curve"/>
      <point x="971" y="1055" type="line"/>
      <point x="875" y="1119"/>
      <point x="751" y="1159"/>
      <point x="652" y="1159" type="curve" smooth="yes"/>
      <point x="502" y="1159"/>
      <point x="402" y="1100"/>
      <point x="402" y="996" type="curve" smooth="yes"/>
      <point x="402" y="804" type="line"/>
      <point x="822" y="804" type="line"/>
      <point x="822" y="749" type="line"/>
      <point x="402" y="749" type="line"/>
      <point x="402" y="55" type="line"/>
      <point x="582" y="55" type="line"/>
      <point x="582" y="0" type="line"/>
    </contour>
  </outline>
</glyph>
<glyph name="ffl" format="1">
  <advance width="1795"/>
  <unicode hex="FB04"/>
  <outline>
    <component base="fl" xOffset="562"/>
    <contour>
      <point x="100" y="0" type="line"/>
      <point x="100" y="55" type="line"/>
      <point x="248" y="55" type="line"/>
      <point x="248" y="749" type="line"/>
      <point x="95" y="749" type="line"/>
      <point x="95" y="804" type="line"/>
      <point x="248" y="804" type="line"/>
      <point x="248" y="994" type="line" smooth="yes"/>
      <point x="248" y="1133"/>
      <point x="379" y="1214"/>
      <point x="566" y="1214" type="curve" smooth="yes"/>
      <point x="680" y="1214"/>
      <point x="818" y="1170"/>
      <point x="923" y="1097" type="curve"/>
      <point x="892" y="1055" type="line"/>
      <point x="797" y="1119"/>
      <point x="673" y="1159"/>
      <point x="574" y="1159" type="curve" smooth="yes"/>
      <point x="423" y="1159"/>
      <point x="323" y="1100"/>
      <point x="323" y="996" type="curve" smooth="yes"/>
      <point x="323" y="804" type="line"/>
      <point x="743" y="804" type="line"/>
      <point x="743" y="749" type="line"/>
      <point x="323" y="749" type="line"/>
      <point x="323" y="55" type="line"/>
      <point x="503" y="55" type="line"/>
      <point x="503" y="0" type="line"/>
    </contour>
  </outline>
</glyph>
<glyph name="fj" format="1">
  <advance width="1076"/>
  <outline>
    <contour>
      <point x="637" y="-260" type="line"/>
      <point x="637" y="-204" type="line"/>
      <point x="706" y="-204" type="line" smooth="yes"/>
      <point x="841" y="-204"/>
      <point x="842" y="-148"/>
      <point x="842" y="-34" type="curve" smooth="yes"/>
      <point x="842" y="749" type="line"/>
      <point x="346" y="749" type="line"/>
      <point x="346" y="55" type="line"/>
      <point x="541" y="55" type="line"/>
      <point x="541" y="0" type="line"/>
      <point x="111" y="0" type="line"/>
      <point x="111" y="55" type="line"/>
      <point x="271" y="55" type="line"/>
      <point x="271" y="749" type="line"/>
      <point x="106" y="749" type="line"/>
      <point x="106" y="804" type="line"/>
      <point x="271" y="804" type="line"/>
      <point x="271" y="940" type="line" smooth="yes"/>
      <point x="271" y="1121"/>
      <point x="422" y="1220"/>
      <point x="649" y="1220" type="curve" smooth="yes"/>
      <point x="815" y="1220"/>
      <point x="933" y="1160"/>
      <point x="933" y="1066" type="curve" smooth="yes"/>
      <point x="933" y="1026"/>
      <point x="909" y="999"/>
      <point x="869" y="999" type="curve" smooth="yes"/>
      <point x="830" y="999"/>
      <point x="800" y="1022"/>
      <point x="800" y="1055" type="curve" smooth="yes"/>
      <point x="800" y="1076"/>
      <point x="810" y="1098"/>
      <point x="835" y="1106" type="curve"/>
      <point x="809" y="1153"/>
      <point x="713" y="1169"/>
      <point x="646" y="1169" type="curve" smooth="yes"/>
      <point x="463" y="1169"/>
      <point x="346" y="1089"/>
      <point x="346" y="941" type="curve" smooth="yes"/>
      <point x="346" y="804" type="line"/>
      <point x="919" y="804" type="line"/>
      <point x="919" y="-18" type="line" smooth="yes"/>
      <point x="919" y="-53" type="line" smooth="yes"/>
      <point x="919" y="-148"/>
      <point x="908" y="-260"/>
      <point x="714" y="-260" type="curve" smooth="yes"/>
    </contour>
  </outline>
</glyph>
